<svg width="1102" height="126" viewBox="0 0 1102 126" fill="none" xmlns="http://www.w3.org/2000/svg">
<g clip-path="url(#clip0_943_2917)">
<path d="M1099 0H3C1.34315 0 0 1.34315 0 3V123C0 124.657 1.34315 126 3 126H1099C1100.66 126 1102 124.657 1102 123V3C1102 1.34315 1100.66 0 1099 0Z" fill="#F8F3E7"/>
<path d="M97.7032 12.807L101.669 15.0967L113.062 -4.63528L109.096 -6.92497L97.7032 12.807Z" stroke="#F4E6BE" stroke-width="0.5002" stroke-miterlimit="3.8636"/>
<path d="M94.3655 0.323279L87.4406 12.1626L79.6221 7.58326L77.2766 11.6042L85.2067 16.1835L80.6274 24.002L84.6483 26.3475L114.247 -25.0308L110.337 -27.2646L105.758 -19.4462L97.8279 -24.0256L95.5941 -20.0047L103.413 -15.4253L96.5993 -3.58594L80.8508 -12.7447L78.5052 -8.83547L94.3655 0.323279Z" stroke="#F4E6BE" stroke-width="0.5002" stroke-miterlimit="3.8636"/>
<path d="M32.0415 17.0766L25.2283 28.9159L17.2982 24.3366L14.9526 28.2458L22.8828 32.8251L18.3034 40.7553L22.3243 42.9891L51.9227 -8.38921L48.0135 -10.623L43.4341 -2.69292L35.504 -7.27229L33.2701 -3.36307L41.2003 1.2163L34.2754 13.0557L18.5268 3.89691L16.1812 7.91783L32.0415 17.0766Z" stroke="#F4E6BE" stroke-width="0.5002" stroke-miterlimit="3.8636"/>
<path d="M8.36262 103.415L15.2875 91.5752L23.106 96.1545L25.4515 92.2453L17.5214 87.6659L22.1007 79.7358L18.1915 77.502L-11.5186 128.769L-7.49764 131.114L-3.02996 123.184L4.90017 127.763L7.13401 123.742L-0.684429 119.275L6.12878 107.435L21.8774 116.482L24.2229 112.573L8.36262 103.415Z" stroke="#F4E6BE" stroke-width="0.5002" stroke-miterlimit="3.8636"/>
<path d="M62.0867 -7.71843L73.9261 -0.905214L69.4584 7.02492L73.3676 9.25876L77.947 1.44032L85.7654 5.908L88.1109 1.99878L36.7326 -27.5996L34.4988 -23.6904L42.3172 -19.111L37.8495 -11.1809L41.7588 -8.94704L46.3381 -16.8772L58.1775 -10.064L49.0187 5.79631L53.0397 8.03015L62.0867 -7.71843Z" stroke="#F4E6BE" stroke-width="0.5002" stroke-miterlimit="3.8636"/>
<path d="M35.3673 29.4545L39.333 31.7441L50.7256 12.0122L46.7599 9.72249L35.3673 29.4545Z" stroke="#F4E6BE" stroke-width="0.5002" stroke-miterlimit="3.8636"/>
<path d="M54.0444 24.449L60.8576 12.6097L68.7877 17.1891L71.0216 13.1682L63.0914 8.70047L67.6708 0.770335L63.7616 -1.5752L34.0515 49.8031L38.0724 52.1487L42.6518 44.2185L50.4702 48.7979L52.8158 44.777L44.8856 40.1976L51.6989 28.3583L67.5591 37.517L69.793 33.6078L54.0444 24.449Z" stroke="#F4E6BE" stroke-width="0.5002" stroke-miterlimit="3.8636"/>
<path d="M12.2628 5.63176L14.5525 1.66602L-5.17947 -9.72657L-7.46915 -5.76083L12.2628 5.63176Z" stroke="#F4E6BE" stroke-width="0.5002" stroke-miterlimit="3.8636"/>
<path d="M28.9042 67.9677L31.1938 64.002L11.4619 52.6094L9.1722 56.5751L28.9042 67.9677Z" stroke="#F4E6BE" stroke-width="0.5002" stroke-miterlimit="3.8636"/>
<path d="M-8.27996 41.2029L-1.35505 29.3636L6.46339 33.8313L8.80892 29.9221L0.878786 25.3427L5.45816 17.5242L1.43725 15.1787L-28.1611 66.557L-24.2519 68.7909L-19.6725 60.8607L-11.7424 65.4401L-9.50857 61.5309L-17.327 56.9515L-10.5138 45.1122L5.23478 54.2709L7.58031 50.25L-8.27996 41.2029Z" stroke="#F4E6BE" stroke-width="0.5002" stroke-miterlimit="3.8636"/>
<path d="M16.5159 71.2474L28.3553 78.0606L23.7759 85.9907L27.7968 88.2246L32.2645 80.4061L40.1946 84.9855L42.5401 80.9646L-8.83819 51.3662L-11.1837 55.2754L-3.25358 59.8548L-7.83296 67.7849L-3.81204 70.0188L0.76733 62.0886L12.6067 69.0136L3.44794 84.7621L7.35716 87.1077L16.5159 71.2474Z" stroke="#F4E6BE" stroke-width="0.5002" stroke-miterlimit="3.8636"/>
<path d="M23.9996 49.2442L12.1602 42.4309L16.6279 34.5008L12.7187 32.1553L8.13931 40.0854L0.320872 35.506L-2.02466 39.5269L49.3537 69.1253L51.5875 65.2161L43.6574 60.6367L48.2367 52.7066L44.3275 50.4728L39.7482 58.4029L27.9088 51.478L37.0675 35.7294L33.0466 33.3839L23.9996 49.2442Z" stroke="#F4E6BE" stroke-width="0.5002" stroke-miterlimit="3.8636"/>
<path d="M-0.125451 8.92318L11.7139 15.8481L7.13453 23.6665L11.0438 26.0121L15.6231 18.0819L23.5533 22.6613L25.7871 18.6404L-25.5912 -10.958L-27.8251 -7.04879L-19.8949 -2.46941L-24.4743 5.46072L-20.5651 7.69456L-15.9857 -0.123881L-4.14637 6.68934L-13.3051 22.4379L-9.2842 24.7834L-0.125451 8.92318Z" stroke="#F4E6BE" stroke-width="0.5002" stroke-miterlimit="3.8636"/>
<path d="M7.24531 -13.0795L-4.59404 -19.8927L-0.0146696 -27.8228L-3.92389 -30.0566L-8.50326 -22.2382L-16.4334 -26.7059L-18.6672 -22.7967L32.5994 6.80173L34.9449 2.89251L27.0148 -1.68687L31.5942 -9.617L27.6849 -11.8508L23.1056 -3.92071L11.2662 -10.7339L20.3133 -26.5942L16.4041 -28.828L7.24531 -13.0795Z" stroke="#F4E6BE" stroke-width="0.5002" stroke-miterlimit="3.8636"/>
<path d="M393.7 120.503L386.886 132.342L378.956 127.875L376.722 131.784L384.541 136.363L379.962 144.182L383.982 146.527L413.581 95.1489L409.672 92.915L405.092 100.733L397.162 96.2658L394.928 100.175L402.858 104.754L395.933 116.594L380.185 107.435L377.839 111.456L393.7 120.503Z" stroke="#F4E6BE" stroke-width="0.5002" stroke-miterlimit="3.8636"/>
<path d="M373.905 109.113L376.195 105.147L356.463 93.7549L354.173 97.7206L373.905 109.113Z" stroke="#F4E6BE" stroke-width="0.5002" stroke-miterlimit="3.8636"/>
<path d="M353.38 144.629L360.305 132.79L368.123 137.369L370.469 133.46L362.538 128.881L367.118 120.951L363.209 118.717L333.499 170.095L337.408 172.329L341.987 164.399L349.917 168.978L352.151 165.069L344.333 160.49L351.146 148.65L366.894 157.697L369.24 153.788L353.38 144.629Z" stroke="#F4E6BE" stroke-width="0.5002" stroke-miterlimit="3.8636"/>
<path d="M357.209 46.8749L359.499 42.9092L339.767 31.5166L337.477 35.4823L357.209 46.8749Z" stroke="#F4E6BE" stroke-width="0.5002" stroke-miterlimit="3.8636"/>
<path d="M363.656 8.39781L367.621 10.6875L379.014 -9.04446L375.048 -11.3341L363.656 8.39781Z" stroke="#F4E6BE" stroke-width="0.5002" stroke-miterlimit="3.8636"/>
<path d="M301.355 25.1488L305.32 27.4385L316.713 7.70651L312.747 5.41683L301.355 25.1488Z" stroke="#F4E6BE" stroke-width="0.5002" stroke-miterlimit="3.8636"/>
<path d="M319.983 20.0926L326.908 8.25325L334.727 12.8326L337.072 8.81171L329.142 4.23233L333.722 -3.58611L329.812 -5.93164L300.102 45.4467L304.123 47.6805L308.591 39.8621L316.521 44.4415L318.867 40.4205L310.936 35.8412L317.75 24.0018L333.498 33.1606L335.844 29.2513L319.983 20.0926Z" stroke="#F4E6BE" stroke-width="0.5002" stroke-miterlimit="3.8636"/>
<path d="M297.981 12.6094L291.167 24.4488L283.237 19.8694L281.003 23.8903L288.934 28.4697L284.354 36.2881L288.263 38.6336L317.973 -12.7447L313.953 -14.9785L309.373 -7.16007L301.555 -11.6278L299.209 -7.71853L307.139 -3.13916L300.326 8.70019L284.466 -0.458554L282.232 3.56236L297.981 12.6094Z" stroke="#F4E6BE" stroke-width="0.5002" stroke-miterlimit="3.8636"/>
<path d="M278.176 1.27627L280.466 -2.68945L260.734 -14.082L258.444 -10.1163L278.176 1.27627Z" stroke="#F4E6BE" stroke-width="0.5002" stroke-miterlimit="3.8636"/>
<path d="M241.017 -25.4777L247.83 -37.3171L255.76 -32.8494L258.106 -36.7586L250.176 -41.338L254.755 -49.2681L250.734 -51.502L221.136 -0.123632L225.045 2.11021L229.624 -5.81992L237.554 -1.24055L239.788 -5.14977L231.97 -9.72914L238.783 -21.5685L254.532 -12.4098L256.877 -16.4307L241.017 -25.4777Z" stroke="#F4E6BE" stroke-width="0.5002" stroke-miterlimit="3.8636"/>
<path d="M360.304 -4.0328L353.491 7.80655L345.561 3.22718L343.327 7.1364L351.146 11.7158L346.678 19.6459L350.587 21.8797L380.186 -29.3869L376.276 -31.7324L371.697 -23.8023L363.767 -28.3817L361.533 -24.4724L369.463 -19.8931L362.538 -8.05371L346.79 -17.1008L344.556 -13.1915L360.304 -4.0328Z" stroke="#F4E6BE" stroke-width="0.5002" stroke-miterlimit="3.8636"/>
<path d="M368.905 90.458L357.066 83.6448L361.645 75.7147L357.736 73.3691L353.156 81.2993L345.226 76.7199L342.992 80.7408L394.259 110.339L396.605 106.43L388.674 101.851L393.254 93.9205L389.345 91.6866L384.765 99.6168L372.926 92.6919L381.973 76.9433L378.064 74.5978L368.905 90.458Z" stroke="#F4E6BE" stroke-width="0.5002" stroke-miterlimit="3.8636"/>
<path d="M328.025 -12.1868L339.865 -5.3736L335.285 2.55653L339.306 4.79037L343.774 -3.13976L351.704 1.43961L353.938 -2.46961L302.671 -32.1797L300.326 -28.1588L308.256 -23.5794L303.676 -15.761L307.697 -13.4154L312.165 -21.3456L324.116 -14.5323L314.957 1.32792L318.867 3.56176L328.025 -12.1868Z" stroke="#F4E6BE" stroke-width="0.5002" stroke-miterlimit="3.8636"/>
<path d="M273.296 -17.5472L261.457 -24.3604L266.036 -32.2906L262.015 -34.5244L257.548 -26.706L249.618 -31.1737L247.272 -27.2644L298.65 2.33395L300.996 -1.57527L293.066 -6.15464L297.645 -14.0848L293.624 -16.3186L289.045 -8.38848L277.205 -15.3134L286.364 -31.062L282.455 -33.2958L273.296 -17.5472Z" stroke="#F4E6BE" stroke-width="0.5002" stroke-miterlimit="3.8636"/>
<path d="M376.946 58.2914L370.133 70.1308L362.203 65.5514L359.969 69.4606L367.899 74.04L363.32 81.9701L367.229 84.204L396.939 32.8256L392.918 30.5918L388.45 38.5219L380.52 33.9426L378.175 37.8518L386.105 42.4312L379.291 54.2705L363.431 45.1118L361.197 49.1327L376.946 58.2914Z" stroke="#F4E6BE" stroke-width="0.5002" stroke-miterlimit="3.8636"/>
<path d="M382.307 3.33833L389.12 -8.50103L397.051 -3.92165L399.284 -7.83087L391.466 -12.4102L395.934 -20.3404L392.024 -22.5742L362.426 28.6924L366.335 31.0379L370.915 23.1078L378.845 27.6872L381.079 23.778L373.148 19.1986L379.962 7.35924L395.822 16.4063L398.056 12.4971L382.307 3.33833Z" stroke="#F4E6BE" stroke-width="0.5002" stroke-miterlimit="3.8636"/>
<path d="M265.813 4.5677L277.652 11.3809L273.073 19.3111L277.094 21.5449L281.561 13.7264L289.491 18.3058L291.725 14.2849L240.459 -15.3135L238.113 -11.4043L246.043 -6.82488L241.464 1.10525L245.485 3.33909L249.952 -4.59104L261.903 2.33386L252.745 18.0824L256.654 20.3163L265.813 4.5677Z" stroke="#F4E6BE" stroke-width="0.5002" stroke-miterlimit="3.8636"/>
<path d="M314.734 74.933L307.809 86.7724L299.99 82.193L297.645 86.2139L305.575 90.6816L300.996 98.6117L305.016 100.957L334.615 49.5789L330.706 47.2334L326.126 55.1635L318.196 50.5842L315.962 54.6051L323.781 59.1844L316.967 71.0238L301.219 61.8651L298.873 65.7743L314.734 74.933Z" stroke="#F4E6BE" stroke-width="0.5002" stroke-miterlimit="3.8636"/>
<path d="M239 41.746L242.966 44.0361L254.361 24.3042L250.395 22.014L239 41.746Z" stroke="#F4E6BE" stroke-width="0.5002" stroke-miterlimit="3.8636"/>
<path d="M361.421 112.462L373.26 119.275L368.681 127.205L372.59 129.439L377.169 121.509L385.1 126.088L387.333 122.179L336.067 92.4688L333.721 96.4897L341.651 101.069L337.072 108.887L340.981 111.233L345.561 103.303L357.4 110.116L348.353 125.976L352.262 128.21L361.421 112.462Z" stroke="#F4E6BE" stroke-width="0.5002" stroke-miterlimit="3.8636"/>
<path d="M344.779 50.138L356.618 57.0629L352.039 64.8814L356.06 67.2269L360.639 59.2968L368.458 63.8761L370.803 59.8552L319.425 30.2568L317.191 34.1661L325.009 38.7454L320.43 46.6756L324.451 48.9094L329.03 41.091L340.87 47.9042L331.711 63.6527L335.62 65.9983L344.779 50.138Z" stroke="#F4E6BE" stroke-width="0.5002" stroke-miterlimit="3.8636"/>
<path d="M352.263 28.1344L340.423 21.3212L345.003 13.3911L340.982 11.1572L336.403 18.9757L328.584 14.508L326.239 18.4172L377.617 48.0156L379.851 44.1064L372.032 39.527L376.5 31.5969L372.591 29.363L368.011 37.2932L356.172 30.4799L365.331 14.6197L361.31 12.3858L352.263 28.1344Z" stroke="#F4E6BE" stroke-width="0.5002" stroke-miterlimit="3.8636"/>
<path d="M318.008 87.3949L321.974 89.6846L333.366 69.9526L329.4 67.6629L318.008 87.3949Z" stroke="#F4E6BE" stroke-width="0.5002" stroke-miterlimit="3.8636"/>
<path d="M331.376 137.257L324.562 149.097L316.632 144.517L314.398 148.426L322.217 153.006L317.749 160.936L321.658 163.17L351.257 111.903L347.348 109.558L342.768 117.488L334.95 112.908L332.604 116.818L340.534 121.397L333.721 133.236L317.861 124.189L315.627 128.098L331.376 137.257Z" stroke="#F4E6BE" stroke-width="0.5002" stroke-miterlimit="3.8636"/>
<path d="M336.737 82.3051L343.551 70.4658L351.481 75.0451L353.715 71.1359L345.785 66.5566L350.364 58.6264L346.455 56.3926L316.745 107.771L320.766 110.005L325.233 102.075L333.163 106.654L335.509 102.745L327.579 98.1654L334.392 86.326L350.252 95.3731L352.486 91.4639L336.737 82.3051Z" stroke="#F4E6BE" stroke-width="0.5002" stroke-miterlimit="3.8636"/>
<path d="M269.052 153.899L262.239 165.739L254.309 161.159L252.075 165.18L260.005 169.76L255.425 177.578L259.335 179.924L289.045 128.545L285.024 126.312L280.444 134.13L272.626 129.662L270.281 133.572L278.211 138.151L271.397 149.99L255.537 140.831L253.303 144.852L269.052 153.899Z" stroke="#F4E6BE" stroke-width="0.5002" stroke-miterlimit="3.8636"/>
<path d="M255.763 104.049L259.728 106.339L271.121 86.6069L267.155 84.3172L255.763 104.049Z" stroke="#F4E6BE" stroke-width="0.5002" stroke-miterlimit="3.8636"/>
<path d="M294.981 63.579L297.271 59.6133L277.539 48.2207L275.249 52.1864L294.981 63.579Z" stroke="#F4E6BE" stroke-width="0.5002" stroke-miterlimit="3.8636"/>
<path d="M215.937 17.9736L218.227 14.0078L198.495 2.61523L196.205 6.58097L215.937 17.9736Z" stroke="#F4E6BE" stroke-width="0.5002" stroke-miterlimit="3.8636"/>
<path d="M311.61 125.907L313.9 121.941L294.168 110.549L291.878 114.515L311.61 125.907Z" stroke="#F4E6BE" stroke-width="0.5002" stroke-miterlimit="3.8636"/>
<path d="M274.413 99.059L281.226 87.2197L289.157 91.799L291.502 87.8898L283.572 83.3105L288.151 75.3803L284.13 73.1465L254.532 124.413L258.441 126.759L263.021 118.829L270.951 123.408L273.185 119.387L265.254 114.919L272.179 102.968L287.928 112.127L290.273 108.218L274.413 99.059Z" stroke="#F4E6BE" stroke-width="0.5002" stroke-miterlimit="3.8636"/>
<path d="M299.209 129.216L311.048 136.029L306.469 143.959L310.378 146.193L314.958 138.263L322.888 142.842L325.122 138.933L273.855 109.223L271.51 113.244L279.44 117.711L274.86 125.641L278.881 127.987L283.349 120.057L295.188 126.87L286.141 142.73L290.05 144.964L299.209 129.216Z" stroke="#F4E6BE" stroke-width="0.5002" stroke-miterlimit="3.8636"/>
<path d="M306.692 107.1L294.741 100.287L299.32 92.3569L295.411 90.123L290.831 98.0532L282.901 93.4738L280.667 97.383L332.046 127.093L334.28 123.072L326.35 118.493L330.929 110.674L327.02 108.329L322.44 116.259L310.601 109.446L319.76 93.5855L315.739 91.3517L306.692 107.1Z" stroke="#F4E6BE" stroke-width="0.5002" stroke-miterlimit="3.8636"/>
<path d="M257.883 36.8465L264.696 25.0072L272.626 29.5865L274.86 25.5656L267.042 21.0979L271.51 13.1678L267.6 10.8223L238.002 62.2006L241.911 64.5461L246.491 56.616L254.421 61.1954L256.655 57.1745L248.724 52.7068L255.649 40.7557L271.398 49.9145L273.632 46.0053L257.883 36.8465Z" stroke="#F4E6BE" stroke-width="0.5002" stroke-miterlimit="3.8636"/>
<path d="M282.455 66.8919L294.294 73.7051L289.827 81.6353L293.736 83.8691L298.315 75.939L306.245 80.5183L308.479 76.6091L257.101 47.0107L254.867 50.92L262.797 55.4993L258.218 63.3178L262.127 65.6633L266.706 57.7332L278.546 64.5464L269.387 80.4067L273.408 82.6405L282.455 66.8919Z" stroke="#F4E6BE" stroke-width="0.5002" stroke-miterlimit="3.8636"/>
<path d="M289.938 44.8877L278.098 37.9628L282.678 30.1444L278.657 27.7988L274.189 35.729L266.259 31.1496L263.914 35.0588L315.292 64.7689L317.637 60.748L309.707 56.2803L314.287 48.3502L310.266 46.1163L305.798 53.9348L293.847 47.1215L303.006 31.373L299.097 29.0274L289.938 44.8877Z" stroke="#F4E6BE" stroke-width="0.5002" stroke-miterlimit="3.8636"/>
<path d="M252.409 91.5752L245.596 103.526L237.666 98.9469L235.432 102.856L243.251 107.435L238.671 115.366L242.692 117.599L272.29 66.2211L268.381 63.9873L263.802 71.9174L255.872 67.3381L253.638 71.2473L261.568 75.8267L254.643 87.666L238.895 78.5073L236.549 82.5282L252.409 91.5752Z" stroke="#F4E6BE" stroke-width="0.5002" stroke-miterlimit="3.8636"/>
<path d="M236.885 145.858L248.724 152.671L244.145 160.601L248.166 162.835L252.633 155.016L260.564 159.484L262.909 155.575L211.531 125.977L209.297 129.886L217.115 134.465L212.536 142.395L216.557 144.629L221.136 136.699L232.976 143.624L223.817 159.372L227.726 161.606L236.885 145.858Z" stroke="#F4E6BE" stroke-width="0.5002" stroke-miterlimit="3.8636"/>
<path d="M244.368 123.855L232.528 117.041L237.108 109.111L233.087 106.766L228.507 114.696L220.689 110.116L218.344 114.137L269.722 143.736L271.956 139.826L264.137 135.247L268.605 127.317L264.696 125.083L260.116 132.902L248.277 126.088L257.436 110.34L253.415 107.994L244.368 123.855Z" stroke="#F4E6BE" stroke-width="0.5002" stroke-miterlimit="3.8636"/>
<path d="M52.1624 91.9037L56.1282 94.1934L67.5208 74.4614L63.555 72.1717L52.1624 91.9037Z" stroke="#F4E6BE" stroke-width="0.5002" stroke-miterlimit="3.8636"/>
<path d="M70.7989 86.8846L77.7238 75.0452L85.5422 79.5129L87.8878 75.6037L79.9577 71.0243L84.537 63.2059L80.6278 60.8604L50.9177 112.239L54.9386 114.473L59.4063 106.654L67.3365 111.122L69.5703 107.213L61.7519 102.633L68.5651 90.7938L84.3136 99.9526L86.6592 95.9316L70.7989 86.8846Z" stroke="#F4E6BE" stroke-width="0.5002" stroke-miterlimit="3.8636"/>
<path d="M48.7951 79.4008L41.9818 91.2401L34.0517 86.6608L31.8179 90.6817L39.748 95.1494L35.1686 103.079L39.0779 105.425L68.6762 54.0467L64.767 51.7012L60.1876 59.6313L52.3692 55.0519L50.0237 59.0728L57.9538 63.6522L51.1406 75.4916L35.2803 66.3328L33.0465 70.242L48.7951 79.4008Z" stroke="#F4E6BE" stroke-width="0.5002" stroke-miterlimit="3.8636"/>
<path d="M95.5943 116.929L107.434 123.742L102.854 131.672L106.875 134.018L111.455 126.088L119.273 130.667L121.619 126.646L70.2402 97.0479L68.0063 100.957L75.8248 105.536L71.2454 113.467L75.2663 115.7L79.8457 107.77L91.6851 114.695L82.5263 130.444L86.4355 132.789L95.5943 116.929Z" stroke="#F4E6BE" stroke-width="0.5002" stroke-miterlimit="3.8636"/>
<path d="M40.7532 111.568L28.9139 104.755L33.4933 96.8247L29.4723 94.5908L25.0047 102.521L17.0745 97.9416L14.729 101.851L66.1073 131.561L68.4529 127.54L60.5227 122.961L65.1021 115.142L61.0812 112.797L56.5018 120.727L44.6625 113.914L53.8212 98.0533L49.912 95.8194L40.7532 111.568Z" stroke="#F4E6BE" stroke-width="0.5002" stroke-miterlimit="3.8636"/>
<path d="M45.7648 130.344L48.0544 126.378L28.3225 114.985L26.0328 118.951L45.7648 130.344Z" stroke="#F4E6BE" stroke-width="0.5002" stroke-miterlimit="3.8636"/>
<path d="M87.5528 149.097L94.366 137.258L102.296 141.837L104.53 137.928L96.7116 133.349L101.179 125.418L97.27 123.185L67.6716 174.563L71.5809 176.797L76.1602 168.867L84.0904 173.446L86.3242 169.537L78.3941 164.957L85.2073 153.118L101.068 162.277L103.301 158.256L87.5528 149.097Z" stroke="#F4E6BE" stroke-width="0.5002" stroke-miterlimit="3.8636"/>
<path d="M33.2703 133.683L45.1097 140.497L40.642 148.427L44.5512 150.66L49.1306 142.73L56.949 147.31L59.2945 143.401L7.91621 113.69L5.68237 117.711L13.5008 122.291L9.03313 130.109L12.9424 132.455L17.5217 124.525L29.3611 131.338L20.2023 147.198L24.2232 149.432L33.2703 133.683Z" stroke="#F4E6BE" stroke-width="0.5002" stroke-miterlimit="3.8636"/>
<path d="M65.5491 141.725L58.6242 153.564L50.8057 148.985L48.4602 152.894L56.3903 157.474L51.811 165.404L55.8319 167.638L85.4303 116.371L81.521 114.025L76.9417 121.956L69.0115 117.376L66.7777 121.397L74.5961 125.865L67.7829 137.704L52.0343 128.657L49.6888 132.566L65.5491 141.725Z" stroke="#F4E6BE" stroke-width="0.5002" stroke-miterlimit="3.8636"/>
<path d="M131.118 137.399L135.084 139.688L146.476 119.957L142.511 117.667L131.118 137.399Z" stroke="#F4E6BE" stroke-width="0.5002" stroke-miterlimit="3.8636"/>
<path d="M193.454 120.806L197.42 123.096L208.812 103.364L204.847 101.074L193.454 120.806Z" stroke="#F4E6BE" stroke-width="0.5002" stroke-miterlimit="3.8636"/>
<path d="M114.465 75.1537L118.43 77.4434L129.823 57.7114L125.857 55.4217L114.465 75.1537Z" stroke="#F4E6BE" stroke-width="0.5002" stroke-miterlimit="3.8636"/>
<path d="M176.71 58.4984L180.676 60.7881L192.068 41.0561L188.103 38.7664L176.71 58.4984Z" stroke="#F4E6BE" stroke-width="0.5002" stroke-miterlimit="3.8636"/>
<path d="M108.004 113.646L110.293 109.681L90.5615 98.2881L88.2718 102.254L108.004 113.646Z" stroke="#F4E6BE" stroke-width="0.5002" stroke-miterlimit="3.8636"/>
<path d="M182.044 140.497L170.204 133.684L174.784 125.753L170.763 123.52L166.295 131.45L158.365 126.87L156.02 130.78L207.398 160.378L209.743 156.469L201.813 151.889L206.393 144.071L202.372 141.725L197.792 149.655L185.953 142.842L195.112 126.982L191.203 124.748L182.044 140.497Z" stroke="#F4E6BE" stroke-width="0.5002" stroke-miterlimit="3.8636"/>
<path d="M103.077 94.9264L91.2379 88.1132L95.8172 80.1831L91.7963 77.9492L87.2169 85.7677L79.3985 81.1883L77.053 85.2092L128.431 114.808L130.665 110.898L122.847 106.319L127.314 98.3889L123.405 96.155L118.826 104.085L106.986 97.1602L116.145 81.4117L112.124 79.0661L103.077 94.9264Z" stroke="#F4E6BE" stroke-width="0.5002" stroke-miterlimit="3.8636"/>
<path d="M86.3242 32.6022L74.4848 25.789L79.0642 17.8588L75.155 15.625L70.5756 23.4434L62.6455 18.9758L60.4116 22.885L111.678 52.4834L114.024 48.5741L106.094 43.9948L110.673 36.1763L106.764 33.8308L102.184 41.7609L90.3451 34.9477L99.3921 19.0875L95.4829 16.8536L86.3242 32.6022Z" stroke="#F4E6BE" stroke-width="0.5002" stroke-miterlimit="3.8636"/>
<path d="M91.3644 51.3114L93.6541 47.3457L73.9221 35.9531L71.6324 39.9189L91.3644 51.3114Z" stroke="#F4E6BE" stroke-width="0.5002" stroke-miterlimit="3.8636"/>
<path d="M232.642 80.2187L234.931 76.2529L215.199 64.8603L212.91 68.8261L232.642 80.2187Z" stroke="#F4E6BE" stroke-width="0.5002" stroke-miterlimit="3.8636"/>
<path d="M153.601 34.6142L155.891 30.6484L136.159 19.2558L133.869 23.2216L153.601 34.6142Z" stroke="#F4E6BE" stroke-width="0.5002" stroke-miterlimit="3.8636"/>
<path d="M235.655 29.3627L228.842 41.2021L221.024 36.6227L218.678 40.5319L226.608 45.1113L222.029 53.0414L225.938 55.2753L255.648 4.00862L251.627 1.66309L247.16 9.59322L239.23 5.01385L236.884 8.92307L244.814 13.5024L238.001 25.3418L222.141 16.2947L219.907 20.204L235.655 29.3627Z" stroke="#F4E6BE" stroke-width="0.5002" stroke-miterlimit="3.8636"/>
<path d="M195.447 53.4891L202.26 41.6497L210.19 46.2291L212.424 42.2082L204.606 37.6288L209.073 29.8104L205.164 27.4648L175.566 78.8432L179.475 81.077L184.054 73.2586L191.984 77.7262L194.218 73.817L186.288 69.2377L193.213 57.3983L208.962 66.557L211.195 62.5361L195.447 53.4891Z" stroke="#F4E6BE" stroke-width="0.5002" stroke-miterlimit="3.8636"/>
<path d="M178.693 -8.83611L185.618 -20.6755L193.436 -16.0961L195.782 -20.117L187.852 -24.5847L192.431 -32.5148L188.522 -34.8604L158.812 16.518L162.833 18.8635L167.3 10.9334L175.231 15.5127L177.576 11.4918L169.646 7.02416L176.459 -4.92689L192.319 4.23186L194.553 0.322636L178.693 -8.83611Z" stroke="#F4E6BE" stroke-width="0.5002" stroke-miterlimit="3.8636"/>
<path d="M133.123 70.1303L139.936 58.291L147.866 62.8703L150.212 58.9611L142.282 54.3817L146.861 46.4516L142.84 44.2178L113.242 95.4844L117.151 97.8299L121.73 89.8998L129.66 94.4792L131.894 90.57L124.076 85.9906L130.889 74.1512L146.638 83.1983L148.983 79.2891L133.123 70.1303Z" stroke="#F4E6BE" stroke-width="0.5002" stroke-miterlimit="3.8636"/>
<path d="M212.089 115.812L219.014 103.973L226.833 108.441L229.178 104.531L221.248 99.9521L225.828 92.0219L221.918 89.7881L192.208 141.166L196.117 143.4L200.697 135.47L208.627 140.05L210.861 136.14L203.042 131.561L209.856 119.722L225.604 128.88L227.95 124.859L212.089 115.812Z" stroke="#F4E6BE" stroke-width="0.5002" stroke-miterlimit="3.8636"/>
<path d="M149.876 132.455L156.689 120.616L164.619 125.195L166.853 121.174L158.923 116.706L163.502 108.776L159.593 106.431L129.883 157.809L133.904 160.155L138.483 152.224L146.302 156.804L148.647 152.783L140.717 148.203L147.53 136.364L163.391 145.523L165.625 141.614L149.876 132.455Z" stroke="#F4E6BE" stroke-width="0.5002" stroke-miterlimit="3.8636"/>
<path d="M116.481 7.91779L123.294 -4.03325L131.224 0.546121L133.458 -3.3631L125.528 -7.94247L130.107 -15.8726L126.198 -18.1064L96.4878 33.2719L100.509 35.5057L105.088 27.5756L112.907 32.155L115.252 28.2457L107.322 23.6664L114.135 11.827L129.995 20.9858L132.229 16.9648L116.481 7.91779Z" stroke="#F4E6BE" stroke-width="0.5002" stroke-miterlimit="3.8636"/>
<path d="M141.164 37.9632L153.004 44.7764L148.536 52.7066L152.445 54.9404L157.025 47.122L164.955 51.5896L167.189 47.6804L115.81 18.082L113.576 21.9913L121.507 26.5706L116.927 34.5008L120.836 36.7346L125.416 28.8045L137.255 35.7294L128.096 51.4779L132.117 53.7118L141.164 37.9632Z" stroke="#F4E6BE" stroke-width="0.5002" stroke-miterlimit="3.8636"/>
<path d="M157.919 100.288L169.758 107.101L165.179 115.031L169.088 117.265L173.667 109.335L181.597 113.914L183.831 110.005L132.565 80.2949L130.219 84.3158L138.149 88.8952L133.57 96.7137L137.591 99.0592L142.058 91.129L153.898 97.9423L144.851 113.803L148.76 116.036L157.919 100.288Z" stroke="#F4E6BE" stroke-width="0.5002" stroke-miterlimit="3.8636"/>
<path d="M203.488 21.2093L215.328 28.1342L210.748 35.9527L214.769 38.2982L219.349 30.3681L227.167 34.9474L229.513 31.0382L178.134 1.32812L175.9 5.34904L183.719 9.81672L179.139 17.7469L183.16 20.0924L187.74 12.1623L199.579 18.9755L190.42 34.8357L194.33 37.0696L203.488 21.2093Z" stroke="#F4E6BE" stroke-width="0.5002" stroke-miterlimit="3.8636"/>
<path d="M220.243 83.5335L232.082 90.3467L227.503 98.2769L231.412 100.622L235.991 92.6923L243.921 97.2716L246.155 93.2507L194.777 63.6523L192.543 67.5616L200.473 72.1409L195.894 80.0711L199.803 82.3049L204.382 74.4865L216.222 81.2997L207.175 97.0483L211.084 99.3938L220.243 83.5335Z" stroke="#F4E6BE" stroke-width="0.5002" stroke-miterlimit="3.8636"/>
<path d="M78.9523 54.6058L90.7917 61.5307L86.2123 69.3491L90.1215 71.6947L94.7009 63.7645L102.631 68.3439L104.865 64.4347L53.4865 34.7246L51.2527 38.6338L59.1828 43.2132L54.6034 51.1433L58.5127 53.3772L63.092 45.5587L74.9314 52.3719L65.8843 68.1205L69.7936 70.4661L78.9523 54.6058Z" stroke="#F4E6BE" stroke-width="0.5002" stroke-miterlimit="3.8636"/>
<path d="M173.443 46.0049L166.518 57.8443L158.7 53.2649L156.354 57.2858L164.284 61.8652L159.705 69.6836L163.726 72.0292L193.324 20.6508L189.415 18.417L184.836 26.2354L176.906 21.6561L174.672 25.677L182.49 30.2563L175.677 42.0957L159.928 32.937L157.583 36.8462L173.443 46.0049Z" stroke="#F4E6BE" stroke-width="0.5002" stroke-miterlimit="3.8636"/>
<path d="M111.119 62.7592L104.306 74.5985L96.3754 70.0192L94.1416 73.9284L101.96 78.5078L97.3807 86.4379L101.402 88.6717L131 37.2934L127.091 35.0596L122.511 42.9897L114.581 38.4103L112.347 42.3196L120.278 46.8989L113.353 58.7383L97.6041 49.6912L95.3702 53.6004L111.119 62.7592Z" stroke="#F4E6BE" stroke-width="0.5002" stroke-miterlimit="3.8636"/>
<path d="M127.761 124.971L120.948 136.81L113.018 132.342L110.784 136.252L118.714 140.831L114.135 148.649L118.044 150.995L147.754 99.6167L143.733 97.3828L139.154 105.313L131.336 100.734L128.99 104.643L136.92 109.222L130.107 121.062L114.247 111.903L112.013 115.924L127.761 124.971Z" stroke="#F4E6BE" stroke-width="0.5002" stroke-miterlimit="3.8636"/>
<path d="M190.085 108.329L183.272 120.168L175.342 115.589L173.108 119.498L181.038 124.077L176.459 132.007L180.368 134.241L209.967 82.9744L206.057 80.6289L201.478 88.559L193.659 83.9797L191.314 88.0006L199.244 92.4683L192.431 104.419L176.571 95.2606L174.337 99.1698L190.085 108.329Z" stroke="#F4E6BE" stroke-width="0.5002" stroke-miterlimit="3.8636"/>
<path d="M156.69 -16.3193L149.877 -4.47994L141.947 -8.94762L139.713 -5.0384L147.643 -0.459032L143.064 7.4711L146.973 9.70494L176.683 -41.6734L172.662 -43.9072L168.083 -35.9771L160.264 -40.5565L157.919 -36.6472L165.849 -32.0679L159.036 -20.2285L143.175 -29.3873L140.942 -25.3664L156.69 -16.3193Z" stroke="#F4E6BE" stroke-width="0.5002" stroke-miterlimit="3.8636"/>
<path d="M210.972 -0.793321L199.133 -7.60654L203.712 -15.5367L199.692 -17.7705L195.112 -9.84038L187.294 -14.4197L184.948 -10.5105L236.327 19.1995L238.56 15.1786L230.742 10.5993L235.21 2.78082L231.3 0.435289L226.721 8.36542L214.882 1.55221L224.04 -14.3081L220.131 -16.5419L210.972 -0.793321Z" stroke="#F4E6BE" stroke-width="0.5002" stroke-miterlimit="3.8636"/>
<path d="M165.401 78.1725L153.45 71.3593L158.03 63.4292L154.12 61.1953L149.541 69.1254L141.611 64.5461L139.377 68.4553L190.755 98.1654L192.989 94.1445L185.059 89.6768L189.638 81.7466L185.729 79.4011L181.15 87.3312L169.31 80.518L178.469 64.6578L174.448 62.4239L165.401 78.1725Z" stroke="#F4E6BE" stroke-width="0.5002" stroke-miterlimit="3.8636"/>
<path d="M227.614 61.5299L215.775 54.7167L220.354 46.7866L216.445 44.5527L211.866 52.3712L203.936 47.9035L201.702 51.8127L252.969 81.4111L255.314 77.5019L247.384 72.9225L251.963 64.9924L248.054 62.7585L243.475 70.6887L231.635 63.7638L240.682 48.0152L236.773 45.7813L227.614 61.5299Z" stroke="#F4E6BE" stroke-width="0.5002" stroke-miterlimit="3.8636"/>
<path d="M148.648 15.96L136.809 9.03507L141.388 1.21662L137.367 -1.12891L132.9 6.80122L124.969 2.22185L122.736 6.24276L174.002 35.8411L176.348 31.9319L168.418 27.3526L172.997 19.4224L168.976 17.1886L164.508 25.007L152.557 18.1938L161.716 2.44523L157.807 0.0997042L148.648 15.96Z" stroke="#F4E6BE" stroke-width="0.5002" stroke-miterlimit="3.8636"/>
<path d="M170.344 97.0107L172.634 93.0449L152.902 81.6523L150.612 85.6181L170.344 97.0107Z" stroke="#F4E6BE" stroke-width="0.5002" stroke-miterlimit="3.8636"/>
<path d="M503.703 37.349L507.669 39.6387L519.062 19.9067L515.096 17.617L503.703 37.349Z" stroke="#F4E6BE" stroke-width="0.5002" stroke-miterlimit="3.8636"/>
<path d="M480.599 13.5321L482.888 9.56641L463.156 -1.82618L460.867 2.13956L480.599 13.5321Z" stroke="#F4E6BE" stroke-width="0.5002" stroke-miterlimit="3.8636"/>
<path d="M443.403 -13.3336L450.216 -25.1729L458.146 -20.5935L460.38 -24.5028L452.45 -29.0821L457.029 -37.0123L453.12 -39.2461L423.41 12.1322L427.431 14.3661L432.01 6.43594L439.829 11.0153L442.174 7.10609L434.244 2.52672L441.057 -9.31264L456.918 -0.265589L459.152 -4.17481L443.403 -13.3336Z" stroke="#F4E6BE" stroke-width="0.5002" stroke-miterlimit="3.8636"/>
<path d="M421.287 -20.7057L414.474 -8.8663L406.544 -13.4457L404.31 -9.53645L412.24 -4.95708L407.661 2.97305L411.57 5.20689L441.28 -46.0597L437.259 -48.4053L432.68 -40.4751L424.861 -45.0545L422.516 -41.1453L430.446 -36.5659L423.633 -24.7266L407.773 -33.7736L405.539 -29.8644L421.287 -20.7057Z" stroke="#F4E6BE" stroke-width="0.5002" stroke-miterlimit="3.8636"/>
<path d="M500.365 24.8653L493.441 36.7046L485.622 32.1253L483.277 36.1462L491.207 40.7255L486.627 48.544L490.648 50.8895L520.247 -0.488816L516.337 -2.72266L511.758 5.09578L503.828 0.516414L501.594 4.53732L509.413 9.1167L502.599 20.9561L486.851 11.7973L484.505 15.7065L500.365 24.8653Z" stroke="#F4E6BE" stroke-width="0.5002" stroke-miterlimit="3.8636"/>
<path d="M438.042 41.6186L431.228 53.4579L423.298 48.8785L420.953 52.7878L428.883 57.3671L424.303 65.2973L428.324 67.5311L457.923 16.1528L454.013 13.9189L449.434 21.8491L441.504 17.2697L439.27 21.1789L447.2 25.7583L440.275 37.5977L424.527 28.4389L422.181 32.4598L438.042 41.6186Z" stroke="#F4E6BE" stroke-width="0.5002" stroke-miterlimit="3.8636"/>
<path d="M414.363 127.956L421.288 116.117L429.106 120.697L431.451 116.787L423.521 112.208L428.101 104.278L424.192 102.044L394.481 153.311L398.502 155.656L402.97 147.726L410.9 152.305L413.134 148.284L405.316 143.817L412.129 131.977L427.877 141.024L430.223 137.115L414.363 127.956Z" stroke="#F4E6BE" stroke-width="0.5002" stroke-miterlimit="3.8636"/>
<path d="M468.087 16.8236L479.926 23.6368L475.458 31.5669L479.368 33.8008L483.947 25.9823L491.765 30.45L494.111 26.5408L442.733 -3.05762L440.499 0.851604L448.317 5.43098L443.85 13.3611L447.759 15.595L452.338 7.66482L464.177 14.478L455.019 30.3383L459.04 32.5721L468.087 16.8236Z" stroke="#F4E6BE" stroke-width="0.5002" stroke-miterlimit="3.8636"/>
<path d="M475.57 -5.17967L463.73 -12.1046L468.31 -19.923L464.289 -22.2686L459.821 -14.3384L451.891 -18.9178L449.545 -14.8969L500.924 14.7015L503.269 10.7923L495.339 6.21291L499.919 -1.71722L495.898 -3.95106L491.318 3.86738L479.479 -2.94583L488.638 -18.6944L484.728 -21.0399L475.57 -5.17967Z" stroke="#F4E6BE" stroke-width="0.5002" stroke-miterlimit="3.8636"/>
<path d="M441.367 53.9964L445.333 56.2861L456.726 36.5542L452.76 34.2645L441.367 53.9964Z" stroke="#F4E6BE" stroke-width="0.5002" stroke-miterlimit="3.8636"/>
<path d="M380 70.7318L383.966 73.0215L395.358 53.2895L391.393 50.9998L380 70.7318Z" stroke="#F4E6BE" stroke-width="0.5002" stroke-miterlimit="3.8636"/>
<path d="M396 132.732L399.966 135.021L411.358 115.29L407.393 113L396 132.732Z" stroke="#F4E6BE" stroke-width="0.5002" stroke-miterlimit="3.8636"/>
<path d="M460.044 48.991L466.858 37.1517L474.788 41.7311L477.022 37.7101L469.091 33.2425L473.671 25.3123L469.762 22.9668L440.052 74.3451L444.072 76.6907L448.652 68.7605L456.47 73.3399L458.816 69.319L450.886 64.7396L457.699 52.9003L473.559 62.059L475.793 58.1498L460.044 48.991Z" stroke="#F4E6BE" stroke-width="0.5002" stroke-miterlimit="3.8636"/>
<path d="M418.263 30.1737L420.552 26.208L400.821 14.8154L398.531 18.7812L418.263 30.1737Z" stroke="#F4E6BE" stroke-width="0.5002" stroke-miterlimit="3.8636"/>
<path d="M434.904 92.5097L437.194 88.5439L417.462 77.1514L415.172 81.1171L434.904 92.5097Z" stroke="#F4E6BE" stroke-width="0.5002" stroke-miterlimit="3.8636"/>
<path d="M397.72 65.7449L404.645 53.9056L412.463 58.3733L414.809 54.464L406.879 49.8847L411.458 42.0662L407.437 39.7207L377.839 91.099L381.748 93.3329L386.327 85.4027L394.258 89.9821L396.491 86.0729L388.673 81.4935L395.486 69.6542L411.235 78.8129L413.58 74.792L397.72 65.7449Z" stroke="#F4E6BE" stroke-width="0.5002" stroke-miterlimit="3.8636"/>
<path d="M422.516 95.7894L434.355 102.603L429.776 110.533L433.797 112.767L438.265 104.948L446.195 109.528L448.54 105.507L397.162 75.9082L394.816 79.8174L402.747 84.3968L398.167 92.3269L402.188 94.5608L406.767 86.6306L418.607 93.5555L409.448 109.304L413.357 111.65L422.516 95.7894Z" stroke="#F4E6BE" stroke-width="0.5002" stroke-miterlimit="3.8636"/>
<path d="M430 73.7861L418.16 66.9729L422.628 59.0428L418.719 56.6973L414.139 64.6274L406.321 60.048L403.975 64.0689L455.354 93.6673L457.588 89.7581L449.657 85.1787L454.237 77.2486L450.328 75.0148L445.748 82.9449L433.909 76.02L443.068 60.2714L439.047 57.9259L430 73.7861Z" stroke="#F4E6BE" stroke-width="0.5002" stroke-miterlimit="3.8636"/>
<path d="M405.874 33.4652L417.714 40.3901L413.134 48.2085L417.044 50.554L421.623 42.6239L429.553 47.2033L431.787 43.1824L380.409 13.584L378.175 17.4932L386.105 22.0726L381.526 30.0027L385.435 32.2366L390.014 24.4181L401.854 31.2313L392.695 46.9799L396.716 49.3254L405.874 33.4652Z" stroke="#F4E6BE" stroke-width="0.5002" stroke-miterlimit="3.8636"/>
<path d="M413.245 11.4625L401.406 4.64932L405.985 -3.28081L402.076 -5.51465L397.497 2.30379L389.567 -2.16389L387.333 1.74533L438.599 31.3437L440.945 27.4345L433.015 22.8551L437.594 14.925L433.685 12.6912L429.106 20.6213L417.266 13.8081L426.313 -2.0522L422.404 -4.28604L413.245 11.4625Z" stroke="#F4E6BE" stroke-width="0.5002" stroke-miterlimit="3.8636"/>
<path d="M799.7 145.045L792.886 156.884L784.956 152.417L782.722 156.326L790.541 160.905L785.962 168.724L789.982 171.069L819.581 119.691L815.672 117.457L811.092 125.275L803.162 120.808L800.928 124.717L808.858 129.296L801.933 141.136L786.185 131.977L783.839 135.998L799.7 145.045Z" stroke="#F4E6BE" stroke-width="0.5002" stroke-miterlimit="3.8636"/>
<path d="M779.905 133.655L782.195 129.689L762.463 118.297L760.173 122.263L779.905 133.655Z" stroke="#F4E6BE" stroke-width="0.5002" stroke-miterlimit="3.8636"/>
<path d="M763.209 71.4169L765.499 67.4512L745.767 56.0586L743.477 60.0243L763.209 71.4169Z" stroke="#F4E6BE" stroke-width="0.5002" stroke-miterlimit="3.8636"/>
<path d="M769.656 32.9398L773.621 35.2295L785.014 15.4975L781.048 13.2078L769.656 32.9398Z" stroke="#F4E6BE" stroke-width="0.5002" stroke-miterlimit="3.8636"/>
<path d="M628.357 4.05504L632.322 6.34473L643.715 -13.3872L639.749 -15.6769L628.357 4.05504Z" stroke="#F4E6BE" stroke-width="0.5002" stroke-miterlimit="3.8636"/>
<path d="M707.355 49.6908L711.32 51.9805L722.713 32.2485L718.747 29.9588L707.355 49.6908Z" stroke="#F4E6BE" stroke-width="0.5002" stroke-miterlimit="3.8636"/>
<path d="M725.983 44.6346L732.908 32.7952L740.727 37.3746L743.072 33.3537L735.142 28.7743L739.722 20.9559L735.812 18.6104L706.102 69.9887L710.123 72.2225L714.591 64.4041L722.521 68.9835L724.867 64.9625L716.936 60.3832L723.75 48.5438L739.498 57.7026L741.844 53.7933L725.983 44.6346Z" stroke="#F4E6BE" stroke-width="0.5002" stroke-miterlimit="3.8636"/>
<path d="M703.981 37.1514L697.167 48.9908L689.237 44.4114L687.003 48.4323L694.934 53.0117L690.354 60.8301L694.263 63.1756L723.973 11.7973L719.953 9.56348L715.373 17.3819L707.555 12.9142L705.209 16.8235L713.139 21.4028L706.326 33.2422L690.466 24.0834L688.232 28.1043L703.981 37.1514Z" stroke="#F4E6BE" stroke-width="0.5002" stroke-miterlimit="3.8636"/>
<path d="M684.176 25.8183L686.466 21.8525L666.734 10.46L664.444 14.4257L684.176 25.8183Z" stroke="#F4E6BE" stroke-width="0.5002" stroke-miterlimit="3.8636"/>
<path d="M647.017 -0.935727L653.83 -12.7751L661.76 -8.3074L664.106 -12.2166L656.176 -16.796L660.755 -24.7261L656.734 -26.96L627.136 24.4184L631.045 26.6522L635.624 18.7221L643.554 23.3014L645.788 19.3922L637.97 14.8128L644.783 2.97349L660.532 12.1322L662.877 8.11133L647.017 -0.935727Z" stroke="#F4E6BE" stroke-width="0.5002" stroke-miterlimit="3.8636"/>
<path d="M625.014 -8.41952L618.201 3.41983L610.271 -1.15954L608.037 2.86137L615.855 7.32905L611.388 15.2592L615.297 17.493L644.895 -33.7736L640.986 -36.1191L636.407 -28.189L628.477 -32.7684L626.243 -28.7475L634.173 -24.2798L627.248 -12.3287L611.499 -21.4875L609.265 -17.5783L625.014 -8.41952Z" stroke="#F4E6BE" stroke-width="0.5002" stroke-miterlimit="3.8636"/>
<path d="M766.304 20.5092L759.491 32.3485L751.561 27.7692L749.327 31.6784L757.146 36.2578L752.678 44.1879L756.587 46.4217L786.186 -4.8449L782.276 -7.19043L777.697 0.739701L769.767 -3.83967L767.533 0.0695511L775.463 4.64892L768.538 16.4883L752.79 7.44122L750.556 11.3504L766.304 20.5092Z" stroke="#F4E6BE" stroke-width="0.5002" stroke-miterlimit="3.8636"/>
<path d="M796.349 -4.2868L808.3 2.52642L803.721 10.4566L807.63 12.6904L812.209 4.87195L820.139 9.45132L822.373 5.43041L770.995 -24.168L768.761 -20.2587L776.691 -15.6794L772.112 -7.74925L776.021 -5.51541L780.6 -13.4455L792.44 -6.52064L783.281 9.22794L787.302 11.5735L796.349 -4.2868Z" stroke="#F4E6BE" stroke-width="0.5002" stroke-miterlimit="3.8636"/>
<path d="M774.905 115L763.066 108.187L767.645 100.257L763.736 97.9111L759.156 105.841L751.226 101.262L748.992 105.283L800.259 134.881L802.605 130.972L794.674 126.393L799.254 118.462L795.345 116.229L790.765 124.159L778.926 117.234L787.973 101.485L784.064 99.1397L774.905 115Z" stroke="#F4E6BE" stroke-width="0.5002" stroke-miterlimit="3.8636"/>
<path d="M734.025 12.3552L745.865 19.1684L741.285 27.0985L745.306 29.3324L749.774 21.4022L757.704 25.9816L759.938 22.0724L708.671 -7.6377L706.326 -3.61678L714.256 0.962596L709.676 8.78103L713.697 11.1266L718.165 3.19643L730.116 10.0096L720.957 25.8699L724.867 28.1038L734.025 12.3552Z" stroke="#F4E6BE" stroke-width="0.5002" stroke-miterlimit="3.8636"/>
<path d="M746.443 9.04875L748.733 5.08301L729.001 -6.30958L726.711 -2.34383L746.443 9.04875Z" stroke="#F4E6BE" stroke-width="0.5002" stroke-miterlimit="3.8636"/>
<path d="M741.509 -9.75915L729.67 -16.5724L734.137 -24.5025L730.228 -26.7363L725.649 -18.8062L717.719 -23.3856L715.485 -19.4763L766.863 10.2337L769.097 6.21282L761.167 1.63344L765.746 -6.185L761.837 -8.53053L757.258 -0.600396L745.418 -7.41361L754.577 -23.2739L750.556 -25.5077L741.509 -9.75915Z" stroke="#F4E6BE" stroke-width="0.5002" stroke-miterlimit="3.8636"/>
<path d="M679.296 6.99477L667.457 0.181551L672.036 -7.74858L668.015 -9.98242L663.548 -2.16398L655.618 -6.63166L653.272 -2.72244L704.65 26.8759L706.996 22.9667L699.066 18.3874L703.645 10.4572L699.624 8.22338L695.045 16.1535L683.205 9.22861L692.364 -6.51997L688.455 -8.75381L679.296 6.99477Z" stroke="#F4E6BE" stroke-width="0.5002" stroke-miterlimit="3.8636"/>
<path d="M782.946 82.8334L776.133 94.6728L768.203 90.0934L765.969 94.0026L773.899 98.582L769.32 106.512L773.229 108.746L802.939 57.3676L798.918 55.1338L794.45 63.0639L786.52 58.4845L784.175 62.3938L792.105 66.9731L785.291 78.8125L769.431 69.6538L767.197 73.6747L782.946 82.8334Z" stroke="#F4E6BE" stroke-width="0.5002" stroke-miterlimit="3.8636"/>
<path d="M788.307 27.8803L795.12 16.041L803.051 20.6203L805.284 16.7111L797.466 12.1317L801.934 4.20161L798.024 1.96777L768.426 53.2344L772.335 55.5799L776.915 47.6498L784.845 52.2292L787.079 48.32L779.148 43.7406L785.962 31.9012L801.822 40.9483L804.056 37.0391L788.307 27.8803Z" stroke="#F4E6BE" stroke-width="0.5002" stroke-miterlimit="3.8636"/>
<path d="M671.813 29.1097L683.652 35.9229L679.073 43.853L683.094 46.0869L687.561 38.2684L695.491 42.8478L697.725 38.8269L646.459 9.22852L644.113 13.1377L652.043 17.7171L647.464 25.6472L651.485 27.8811L655.952 19.9509L667.903 26.8759L658.745 42.6244L662.654 44.8583L671.813 29.1097Z" stroke="#F4E6BE" stroke-width="0.5002" stroke-miterlimit="3.8636"/>
<path d="M720.734 99.475L713.809 111.314L705.99 106.735L703.645 110.756L711.575 115.224L706.996 123.154L711.016 125.499L740.615 74.1209L736.706 71.7754L732.126 79.7055L724.196 75.1262L721.962 79.1471L729.781 83.7264L722.967 95.5658L707.219 86.407L704.873 90.3163L720.734 99.475Z" stroke="#F4E6BE" stroke-width="0.5002" stroke-miterlimit="3.8636"/>
<path d="M709.23 -17.8013L716.154 -29.6407L723.973 -25.0613L726.318 -28.9705L718.388 -33.5499L722.968 -41.48L718.947 -43.7139L689.348 7.55276L693.258 9.89829L697.837 1.96816L705.767 6.54753L708.001 2.52662L700.183 -1.94106L706.996 -13.7804L722.744 -4.73336L725.09 -8.64258L709.23 -17.8013Z" stroke="#F4E6BE" stroke-width="0.5002" stroke-miterlimit="3.8636"/>
<path d="M687.227 -25.2851L680.413 -13.3341L672.483 -17.9134L670.25 -14.0042L678.068 -9.42485L673.6 -1.49472L677.509 0.739119L707.108 -50.6392L703.199 -52.873L698.619 -44.9429L690.689 -49.5223L688.455 -45.6131L696.385 -41.0337L689.461 -29.1943L673.712 -38.3531L671.478 -34.3322L687.227 -25.2851Z" stroke="#F4E6BE" stroke-width="0.5002" stroke-miterlimit="3.8636"/>
<path d="M645 66.288L648.966 68.5781L660.361 48.8462L656.395 46.556L645 66.288Z" stroke="#F4E6BE" stroke-width="0.5002" stroke-miterlimit="3.8636"/>
<path d="M767.421 137.004L779.26 143.817L774.681 151.747L778.59 153.981L783.169 146.051L791.1 150.63L793.333 146.721L742.067 117.011L739.721 121.032L747.651 125.611L743.072 133.429L746.981 135.775L751.561 127.845L763.4 134.658L754.353 150.518L758.262 152.752L767.421 137.004Z" stroke="#F4E6BE" stroke-width="0.5002" stroke-miterlimit="3.8636"/>
<path d="M750.779 74.68L762.618 81.6049L758.039 89.4234L762.06 91.7689L766.639 83.8388L774.458 88.4181L776.803 84.3972L725.425 54.7988L723.191 58.708L731.009 63.2874L726.43 71.2176L730.451 73.4514L735.03 65.633L746.87 72.4462L737.711 88.1947L741.62 90.5403L750.779 74.68Z" stroke="#F4E6BE" stroke-width="0.5002" stroke-miterlimit="3.8636"/>
<path d="M758.263 52.6764L746.423 45.8632L751.003 37.9331L746.982 35.6992L742.403 43.5177L734.584 39.05L732.239 42.9592L783.617 72.5576L785.851 68.6484L778.032 64.069L782.5 56.1389L778.591 53.905L774.011 61.8351L762.172 55.0219L771.331 39.1617L767.31 36.9278L758.263 52.6764Z" stroke="#F4E6BE" stroke-width="0.5002" stroke-miterlimit="3.8636"/>
<path d="M592.846 -16.4612L604.686 -9.64802L600.106 -1.71789L604.016 0.515952L608.595 -7.41418L616.525 -2.83481L618.759 -6.74403L567.492 -36.4541L565.147 -32.4332L573.077 -27.8538L568.497 -20.0354L572.407 -17.6898L576.986 -25.62L588.825 -18.8068L579.778 -2.9465L583.688 -0.712658L592.846 -16.4612Z" stroke="#F4E6BE" stroke-width="0.5002" stroke-miterlimit="3.8636"/>
<path d="M724.008 111.937L727.974 114.227L739.366 94.4946L735.4 92.2049L724.008 111.937Z" stroke="#F4E6BE" stroke-width="0.5002" stroke-miterlimit="3.8636"/>
<path d="M566.111 20.6976L570.077 22.9873L581.469 3.25534L577.504 0.965657L566.111 20.6976Z" stroke="#F4E6BE" stroke-width="0.5002" stroke-miterlimit="3.8636"/>
<path d="M742.737 106.847L749.551 95.0078L757.481 99.5871L759.715 95.6779L751.785 91.0985L756.364 83.1684L752.455 80.9346L722.745 132.313L726.766 134.547L731.233 126.617L739.163 131.196L741.509 127.287L733.579 122.707L740.392 110.868L756.252 119.915L758.486 116.006L742.737 106.847Z" stroke="#F4E6BE" stroke-width="0.5002" stroke-miterlimit="3.8636"/>
<path d="M661.763 128.591L665.728 130.881L677.121 111.149L673.155 108.859L661.763 128.591Z" stroke="#F4E6BE" stroke-width="0.5002" stroke-miterlimit="3.8636"/>
<path d="M700.981 88.121L703.271 84.1553L683.539 72.7627L681.249 76.7284L700.981 88.121Z" stroke="#F4E6BE" stroke-width="0.5002" stroke-miterlimit="3.8636"/>
<path d="M621.937 42.5155L624.227 38.5498L604.495 27.1572L602.205 31.123L621.937 42.5155Z" stroke="#F4E6BE" stroke-width="0.5002" stroke-miterlimit="3.8636"/>
<path d="M680.413 123.601L687.226 111.762L695.157 116.341L697.502 112.432L689.572 107.852L694.151 99.9223L690.13 97.6885L660.532 148.955L664.441 151.301L669.021 143.371L676.951 147.95L679.185 143.929L671.254 139.461L678.179 127.51L693.928 136.669L696.273 132.76L680.413 123.601Z" stroke="#F4E6BE" stroke-width="0.5002" stroke-miterlimit="3.8636"/>
<path d="M712.692 131.642L700.741 124.829L705.32 116.899L701.411 114.665L696.831 122.595L688.901 118.016L686.667 121.925L738.046 151.635L740.28 147.614L732.35 143.035L736.929 135.216L733.02 132.871L728.44 140.801L716.601 133.988L725.76 118.127L721.739 115.894L712.692 131.642Z" stroke="#F4E6BE" stroke-width="0.5002" stroke-miterlimit="3.8636"/>
<path d="M663.883 61.3885L670.696 49.5491L678.626 54.1285L680.86 50.1076L673.042 45.6399L677.51 37.7098L673.6 35.3643L644.002 86.7426L647.911 89.0881L652.491 81.158L660.421 85.7374L662.655 81.7164L654.724 77.2488L661.649 65.2977L677.398 74.4565L679.632 70.5472L663.883 61.3885Z" stroke="#F4E6BE" stroke-width="0.5002" stroke-miterlimit="3.8636"/>
<path d="M688.455 91.4339L700.294 98.2471L695.827 106.177L699.736 108.411L704.315 100.481L712.245 105.06L714.479 101.151L663.101 71.5527L660.867 75.462L668.797 80.0413L664.218 87.8598L668.127 90.2053L672.706 82.2752L684.546 89.0884L675.387 104.949L679.408 107.182L688.455 91.4339Z" stroke="#F4E6BE" stroke-width="0.5002" stroke-miterlimit="3.8636"/>
<path d="M695.938 69.4297L684.098 62.5048L688.678 54.6864L684.657 52.3408L680.189 60.271L672.259 55.6916L669.914 59.6008L721.292 89.3109L723.637 85.29L715.707 80.8223L720.287 72.8922L716.266 70.6583L711.798 78.4768L699.847 71.6635L709.006 55.915L705.097 53.5694L695.938 69.4297Z" stroke="#F4E6BE" stroke-width="0.5002" stroke-miterlimit="3.8636"/>
<path d="M658.409 116.117L651.596 128.068L643.666 123.489L641.432 127.398L649.251 131.977L644.671 139.908L648.692 142.141L678.29 90.7631L674.381 88.5293L669.802 96.4594L661.872 91.8801L659.638 95.7893L667.568 100.369L660.643 112.208L644.895 103.049L642.549 107.07L658.409 116.117Z" stroke="#F4E6BE" stroke-width="0.5002" stroke-miterlimit="3.8636"/>
<path d="M458.162 116.447L462.128 118.736L473.521 99.0044L469.555 96.7147L458.162 116.447Z" stroke="#F4E6BE" stroke-width="0.5002" stroke-miterlimit="3.8636"/>
<path d="M476.799 111.427L483.724 99.5872L491.542 104.055L493.888 100.146L485.958 95.5663L490.537 87.7479L486.628 85.4023L456.918 136.781L460.939 139.015L465.406 131.196L473.336 135.664L475.57 131.755L467.752 127.175L474.565 115.336L490.314 124.495L492.659 120.474L476.799 111.427Z" stroke="#F4E6BE" stroke-width="0.5002" stroke-miterlimit="3.8636"/>
<path d="M454.795 103.943L447.982 115.782L440.052 111.203L437.818 115.224L445.748 119.691L441.169 127.621L445.078 129.967L474.676 78.5887L470.767 76.2432L466.188 84.1733L458.369 79.5939L456.024 83.6148L463.954 88.1942L457.141 100.034L441.28 90.8748L439.046 94.784L454.795 103.943Z" stroke="#F4E6BE" stroke-width="0.5002" stroke-miterlimit="3.8636"/>
<path d="M501.594 141.471L513.434 148.284L508.854 156.214L512.875 158.56L517.455 150.63L525.273 155.209L527.619 151.188L476.24 121.59L474.006 125.499L481.825 130.078L477.245 138.009L481.266 140.242L485.846 132.312L497.685 139.237L488.526 154.986L492.436 157.331L501.594 141.471Z" stroke="#F4E6BE" stroke-width="0.5002" stroke-miterlimit="3.8636"/>
<path d="M446.753 136.11L434.914 129.297L439.493 121.367L435.472 119.133L431.005 127.063L423.075 122.484L420.729 126.393L472.107 156.103L474.453 152.082L466.523 147.503L471.102 139.684L467.081 137.339L462.502 145.269L450.662 138.456L459.821 122.595L455.912 120.361L446.753 136.11Z" stroke="#F4E6BE" stroke-width="0.5002" stroke-miterlimit="3.8636"/>
<path d="M599.454 145.348L603.42 147.638L614.812 127.906L610.847 125.616L599.454 145.348Z" stroke="#F4E6BE" stroke-width="0.5002" stroke-miterlimit="3.8636"/>
<path d="M520.465 99.6957L524.43 101.985L535.823 82.2534L531.857 79.9637L520.465 99.6957Z" stroke="#F4E6BE" stroke-width="0.5002" stroke-miterlimit="3.8636"/>
<path d="M582.71 83.0404L586.676 85.3301L598.068 65.5981L594.103 63.3084L582.71 83.0404Z" stroke="#F4E6BE" stroke-width="0.5002" stroke-miterlimit="3.8636"/>
<path d="M514.004 138.188L516.293 134.223L496.561 122.83L494.272 126.796L514.004 138.188Z" stroke="#F4E6BE" stroke-width="0.5002" stroke-miterlimit="3.8636"/>
<path d="M509.077 119.468L497.238 112.655L501.817 104.725L497.796 102.491L493.217 110.31L485.399 105.73L483.053 109.751L534.431 139.35L536.665 135.44L528.847 130.861L533.314 122.931L529.405 120.697L524.826 128.627L512.986 121.702L522.145 105.954L518.124 103.608L509.077 119.468Z" stroke="#F4E6BE" stroke-width="0.5002" stroke-miterlimit="3.8636"/>
<path d="M492.324 57.1442L480.485 50.331L485.064 42.4008L481.155 40.167L476.576 47.9854L468.645 43.5178L466.412 47.427L517.678 77.0254L520.024 73.1161L512.094 68.5368L516.673 60.7183L512.764 58.3728L508.184 66.3029L496.345 59.4897L505.392 43.6294L501.483 41.3956L492.324 57.1442Z" stroke="#F4E6BE" stroke-width="0.5002" stroke-miterlimit="3.8636"/>
<path d="M497.364 75.8534L499.654 71.8877L479.922 60.4951L477.632 64.4608L497.364 75.8534Z" stroke="#F4E6BE" stroke-width="0.5002" stroke-miterlimit="3.8636"/>
<path d="M638.642 104.761L640.931 100.795L621.199 89.4023L618.91 93.3681L638.642 104.761Z" stroke="#F4E6BE" stroke-width="0.5002" stroke-miterlimit="3.8636"/>
<path d="M559.601 59.1562L561.891 55.1904L542.159 43.7978L539.869 47.7636L559.601 59.1562Z" stroke="#F4E6BE" stroke-width="0.5002" stroke-miterlimit="3.8636"/>
<path d="M641.655 53.9047L634.842 65.744L627.024 61.1647L624.678 65.0739L632.608 69.6533L628.029 77.5834L631.938 79.8172L661.648 28.5506L657.627 26.2051L653.16 34.1352L645.23 29.5558L642.884 33.4651L650.814 38.0444L644.001 49.8838L628.141 40.8367L625.907 44.746L641.655 53.9047Z" stroke="#F4E6BE" stroke-width="0.5002" stroke-miterlimit="3.8636"/>
<path d="M601.447 78.0311L608.26 66.1917L616.19 70.7711L618.424 66.7502L610.606 62.1708L615.073 54.3524L611.164 52.0068L581.566 103.385L585.475 105.619L590.054 97.8006L597.984 102.268L600.218 98.359L592.288 93.7796L599.213 81.9403L614.962 91.099L617.195 87.0781L601.447 78.0311Z" stroke="#F4E6BE" stroke-width="0.5002" stroke-miterlimit="3.8636"/>
<path d="M584.693 15.7059L591.618 3.86653L599.436 8.4459L601.782 4.42499L593.852 -0.0426892L598.431 -7.97282L594.522 -10.3184L564.812 41.06L568.833 43.4055L573.3 35.4754L581.231 40.0547L583.576 36.0338L575.646 31.5661L582.459 19.6151L598.319 28.7738L600.553 24.8646L584.693 15.7059Z" stroke="#F4E6BE" stroke-width="0.5002" stroke-miterlimit="3.8636"/>
<path d="M539.123 94.6723L545.936 82.833L553.866 87.4123L556.212 83.5031L548.282 78.9237L552.861 70.9936L548.84 68.7598L519.242 120.026L523.151 122.372L527.73 114.442L535.66 119.021L537.894 115.112L530.076 110.533L536.889 98.6932L552.638 107.74L554.983 103.831L539.123 94.6723Z" stroke="#F4E6BE" stroke-width="0.5002" stroke-miterlimit="3.8636"/>
<path d="M618.089 140.354L625.014 128.515L632.833 132.983L635.178 129.073L627.248 124.494L631.828 116.564L627.918 114.33L598.208 165.708L602.117 167.942L606.697 160.012L614.627 164.591L616.861 160.682L609.042 156.103L615.856 144.264L631.604 153.422L633.95 149.401L618.089 140.354Z" stroke="#F4E6BE" stroke-width="0.5002" stroke-miterlimit="3.8636"/>
<path d="M522.481 32.4598L529.294 20.5087L537.224 25.0881L539.458 21.1789L531.528 16.5995L536.107 8.66939L532.198 6.43555L502.488 57.8139L506.509 60.0477L511.088 52.1176L518.907 56.697L521.252 52.7877L513.322 48.2084L520.135 36.369L535.995 45.5278L538.229 41.5068L522.481 32.4598Z" stroke="#F4E6BE" stroke-width="0.5002" stroke-miterlimit="3.8636"/>
<path d="M547.164 62.5052L559.004 69.3184L554.536 77.2486L558.445 79.4824L563.025 71.6639L570.955 76.1316L573.189 72.2224L521.81 42.624L519.576 46.5332L527.507 51.1126L522.927 59.0428L526.836 61.2766L531.416 53.3465L543.255 60.2714L534.096 76.0199L538.117 78.2538L547.164 62.5052Z" stroke="#F4E6BE" stroke-width="0.5002" stroke-miterlimit="3.8636"/>
<path d="M530.522 0.180978L542.362 6.99419L537.782 14.9243L541.803 17.2699L546.271 9.33972L554.201 13.9191L556.435 9.89818L505.168 -19.7002L502.823 -15.791L510.753 -11.2116L506.174 -3.28147L510.194 -1.04763L514.662 -8.86607L526.613 -2.05286L517.454 13.6957L521.364 16.0412L530.522 0.180978Z" stroke="#F4E6BE" stroke-width="0.5002" stroke-miterlimit="3.8636"/>
<path d="M563.919 124.83L575.758 131.643L571.179 139.573L575.088 141.807L579.667 133.877L587.597 138.456L589.831 134.547L538.565 104.837L536.219 108.858L544.149 113.437L539.57 121.256L543.591 123.601L548.058 115.671L559.898 122.484L550.851 138.345L554.76 140.578L563.919 124.83Z" stroke="#F4E6BE" stroke-width="0.5002" stroke-miterlimit="3.8636"/>
<path d="M609.488 45.7513L621.328 52.6762L616.748 60.4946L620.769 62.8402L625.349 54.91L633.167 59.4894L635.513 55.5802L584.134 25.8701L581.9 29.891L589.719 34.3587L585.139 42.2888L589.16 44.6344L593.74 36.7042L605.579 43.5175L596.42 59.3777L600.33 61.6116L609.488 45.7513Z" stroke="#F4E6BE" stroke-width="0.5002" stroke-miterlimit="3.8636"/>
<path d="M626.243 108.076L638.082 114.889L633.503 122.819L637.412 125.164L641.991 117.234L649.921 121.814L652.155 117.793L600.777 88.1943L598.543 92.1036L606.473 96.6829L601.894 104.613L605.803 106.847L610.382 99.0285L622.222 105.842L613.175 121.59L617.084 123.936L626.243 108.076Z" stroke="#F4E6BE" stroke-width="0.5002" stroke-miterlimit="3.8636"/>
<path d="M484.952 79.1478L496.792 86.0727L492.212 93.8911L496.122 96.2367L500.701 88.3065L508.631 92.8859L510.865 88.9767L459.487 59.2666L457.253 63.1758L465.183 67.7552L460.603 75.6853L464.513 77.9192L469.092 70.1007L480.931 76.9139L471.884 92.6625L475.794 95.008L484.952 79.1478Z" stroke="#F4E6BE" stroke-width="0.5002" stroke-miterlimit="3.8636"/>
<path d="M579.443 70.5469L572.518 82.3863L564.7 77.8069L562.354 81.8278L570.284 86.4072L565.705 94.2256L569.726 96.5711L599.324 45.1928L595.415 42.959L590.836 50.7774L582.906 46.1981L580.672 50.219L588.49 54.7983L581.677 66.6377L565.928 57.4789L563.583 61.3882L579.443 70.5469Z" stroke="#F4E6BE" stroke-width="0.5002" stroke-miterlimit="3.8636"/>
<path d="M517.119 87.3012L510.306 99.1405L502.375 94.5612L500.142 98.4704L507.96 103.05L503.381 110.98L507.402 113.214L537 61.8354L533.091 59.6016L528.511 67.5317L520.581 62.9523L518.347 66.8615L526.278 71.4409L519.353 83.2803L503.604 74.2332L501.37 78.1424L517.119 87.3012Z" stroke="#F4E6BE" stroke-width="0.5002" stroke-miterlimit="3.8636"/>
<path d="M533.761 149.513L526.948 161.352L519.018 156.884L516.784 160.794L524.714 165.373L520.135 173.191L524.044 175.537L553.754 124.159L549.733 121.925L545.154 129.855L537.336 125.276L534.99 129.185L542.92 133.764L536.107 145.604L520.247 136.445L518.013 140.466L533.761 149.513Z" stroke="#F4E6BE" stroke-width="0.5002" stroke-miterlimit="3.8636"/>
<path d="M596.085 132.871L589.272 144.71L581.342 140.13L579.108 144.04L587.038 148.619L582.459 156.549L586.368 158.783L615.967 107.516L612.057 105.171L607.478 113.101L599.659 108.522L597.314 112.543L605.244 117.01L598.431 128.961L582.571 119.803L580.337 123.712L596.085 132.871Z" stroke="#F4E6BE" stroke-width="0.5002" stroke-miterlimit="3.8636"/>
<path d="M562.69 8.22269L555.877 20.062L547.947 15.5944L545.713 19.5036L553.643 24.083L549.064 32.0131L552.973 34.2469L582.683 -17.1314L578.662 -19.3652L574.083 -11.4351L566.264 -16.0145L563.919 -12.1053L571.849 -7.52588L565.036 4.31347L549.175 -4.84527L546.942 -0.824362L562.69 8.22269Z" stroke="#F4E6BE" stroke-width="0.5002" stroke-miterlimit="3.8636"/>
<path d="M616.972 23.7487L605.133 16.9355L609.712 9.00532L605.692 6.77148L601.112 14.7016L593.294 10.1222L590.948 14.0315L642.327 43.7415L644.56 39.7206L636.742 35.1413L641.21 27.3228L637.3 24.9773L632.721 32.9074L620.882 26.0942L630.04 10.2339L626.131 8.00009L616.972 23.7487Z" stroke="#F4E6BE" stroke-width="0.5002" stroke-miterlimit="3.8636"/>
<path d="M571.401 102.714L559.45 95.9013L564.03 87.9711L560.12 85.7373L555.541 93.6674L547.611 89.0881L545.377 92.9973L596.755 122.707L598.989 118.686L591.059 114.219L595.638 106.289L591.729 103.943L587.15 111.873L575.31 105.06L584.469 89.1998L580.448 86.9659L571.401 102.714Z" stroke="#F4E6BE" stroke-width="0.5002" stroke-miterlimit="3.8636"/>
<path d="M633.614 86.0719L621.775 79.2587L626.354 71.3286L622.445 69.0947L617.866 76.9132L609.936 72.4455L607.702 76.3547L658.969 105.953L661.314 102.044L653.384 97.4645L657.963 89.5344L654.054 87.3005L649.475 95.2307L637.635 88.3058L646.682 72.5572L642.773 70.3233L633.614 86.0719Z" stroke="#F4E6BE" stroke-width="0.5002" stroke-miterlimit="3.8636"/>
<path d="M554.648 40.502L542.809 33.5771L547.388 25.7586L543.367 23.4131L538.9 31.3432L530.969 26.7638L528.736 30.7848L580.002 60.3831L582.348 56.4739L574.418 51.8945L578.997 43.9644L574.976 41.7306L570.508 49.549L558.557 42.7358L567.716 26.9872L563.807 24.6417L554.648 40.502Z" stroke="#F4E6BE" stroke-width="0.5002" stroke-miterlimit="3.8636"/>
<path d="M576.344 121.553L578.634 117.587L558.902 106.194L556.612 110.16L576.344 121.553Z" stroke="#F4E6BE" stroke-width="0.5002" stroke-miterlimit="3.8636"/>
<path d="M910.703 61.349L914.669 63.6387L926.062 43.9067L922.096 41.617L910.703 61.349Z" stroke="#F4E6BE" stroke-width="0.5002" stroke-miterlimit="3.8636"/>
<path d="M887.599 37.5321L889.888 33.5664L870.156 22.1738L867.867 26.1396L887.599 37.5321Z" stroke="#F4E6BE" stroke-width="0.5002" stroke-miterlimit="3.8636"/>
<path d="M850.403 10.6664L857.216 -1.1729L865.146 3.40647L867.38 -0.502752L859.45 -5.08212L864.029 -13.0123L860.12 -15.2461L830.41 36.1322L834.431 38.3661L839.01 30.4359L846.829 35.0153L849.174 31.1061L841.244 26.5267L848.057 14.6874L863.918 23.7344L866.152 19.8252L850.403 10.6664Z" stroke="#F4E6BE" stroke-width="0.5002" stroke-miterlimit="3.8636"/>
<path d="M828.287 3.29435L821.474 15.1337L813.544 10.5543L811.31 14.4635L819.24 19.0429L814.661 26.9731L818.57 29.2069L848.28 -22.0597L844.259 -24.4053L839.68 -16.4751L831.861 -21.0545L829.516 -17.1453L837.446 -12.5659L830.633 -0.726562L814.773 -9.77362L812.539 -5.8644L828.287 3.29435Z" stroke="#F4E6BE" stroke-width="0.5002" stroke-miterlimit="3.8636"/>
<path d="M907.365 48.8653L900.441 60.7046L892.622 56.1253L890.277 60.1462L898.207 64.7255L893.627 72.544L897.648 74.8895L927.247 23.5112L923.337 21.2773L918.758 29.0958L910.828 24.5164L908.594 28.5373L916.413 33.1167L909.599 44.9561L893.851 35.7973L891.505 39.7065L907.365 48.8653Z" stroke="#F4E6BE" stroke-width="0.5002" stroke-miterlimit="3.8636"/>
<path d="M912.615 -5.97577L919.429 -17.8151L927.359 -13.2357L929.592 -17.2567L921.774 -21.836L926.353 -29.6545L922.333 -32L892.734 19.3783L896.643 21.6122L901.223 13.7937L909.153 18.2614L911.387 14.3522L903.457 9.77281L910.381 -2.06655L926.13 7.0922L928.364 3.07128L912.615 -5.97577Z" stroke="#F4E6BE" stroke-width="0.5002" stroke-miterlimit="3.8636"/>
<path d="M845.042 65.6186L838.228 77.4579L830.298 72.8785L827.953 76.7878L835.883 81.3671L831.303 89.2973L835.324 91.5311L864.923 40.1528L861.013 37.9189L856.434 45.8491L848.504 41.2697L846.27 45.1789L854.2 49.7583L847.275 61.5977L831.527 52.4389L829.181 56.4598L845.042 65.6186Z" stroke="#F4E6BE" stroke-width="0.5002" stroke-miterlimit="3.8636"/>
<path d="M821.363 151.956L828.288 140.117L836.106 144.697L838.451 140.787L830.521 136.208L835.101 128.278L831.192 126.044L801.481 177.311L805.502 179.656L809.97 171.726L817.9 176.305L820.134 172.284L812.316 167.817L819.129 155.977L834.877 165.024L837.223 161.115L821.363 151.956Z" stroke="#F4E6BE" stroke-width="0.5002" stroke-miterlimit="3.8636"/>
<path d="M875.087 40.8236L886.926 47.6368L882.458 55.5669L886.368 57.8008L890.947 49.9823L898.765 54.45L901.111 50.5408L849.733 20.9424L847.499 24.8516L855.317 29.431L850.85 37.3611L854.759 39.595L859.338 31.6648L871.177 38.478L862.019 54.3383L866.04 56.5721L875.087 40.8236Z" stroke="#F4E6BE" stroke-width="0.5002" stroke-miterlimit="3.8636"/>
<path d="M882.57 18.8203L870.73 11.8954L875.31 4.07698L871.289 1.73145L866.821 9.66158L858.891 5.08221L856.545 9.10312L907.924 38.7015L910.269 34.7923L902.339 30.2129L906.919 22.2828L902.898 20.0489L898.318 27.8674L886.479 21.0542L895.638 5.30559L891.728 2.96006L882.57 18.8203Z" stroke="#F4E6BE" stroke-width="0.5002" stroke-miterlimit="3.8636"/>
<path d="M848.367 77.9964L852.333 80.2861L863.726 60.5542L859.76 58.2645L848.367 77.9964Z" stroke="#F4E6BE" stroke-width="0.5002" stroke-miterlimit="3.8636"/>
<path d="M787 94.7318L790.966 97.0215L802.358 77.2895L798.393 74.9998L787 94.7318Z" stroke="#F4E6BE" stroke-width="0.5002" stroke-miterlimit="3.8636"/>
<path d="M832 14.7318L835.966 17.0215L847.358 -2.71048L843.393 -5.00016L832 14.7318Z" stroke="#F4E6BE" stroke-width="0.5002" stroke-miterlimit="3.8636"/>
<path d="M877 10.7318L880.966 13.0215L892.358 -6.71048L888.393 -9.00016L877 10.7318Z" stroke="#F4E6BE" stroke-width="0.5002" stroke-miterlimit="3.8636"/>
<path d="M867.044 72.991L873.858 61.1517L881.788 65.7311L884.022 61.7101L876.091 57.2425L880.671 49.3123L876.762 46.9668L847.052 98.3451L851.072 100.691L855.652 92.7605L863.47 97.3399L865.816 93.319L857.886 88.7396L864.699 76.9003L880.559 86.059L882.793 82.1498L867.044 72.991Z" stroke="#F4E6BE" stroke-width="0.5002" stroke-miterlimit="3.8636"/>
<path d="M825.263 54.1737L827.552 50.208L807.821 38.8154L805.531 42.7812L825.263 54.1737Z" stroke="#F4E6BE" stroke-width="0.5002" stroke-miterlimit="3.8636"/>
<path d="M841.904 116.51L844.194 112.544L824.462 101.151L822.172 105.117L841.904 116.51Z" stroke="#F4E6BE" stroke-width="0.5002" stroke-miterlimit="3.8636"/>
<path d="M804.72 89.7449L811.645 77.9056L819.463 82.3733L821.809 78.464L813.879 73.8847L818.458 66.0662L814.437 63.7207L784.839 115.099L788.748 117.333L793.327 109.403L801.258 113.982L803.491 110.073L795.673 105.494L802.486 93.6542L818.235 102.813L820.58 98.792L804.72 89.7449Z" stroke="#F4E6BE" stroke-width="0.5002" stroke-miterlimit="3.8636"/>
<path d="M829.516 119.789L841.355 126.603L836.776 134.533L840.797 136.767L845.265 128.948L853.195 133.528L855.54 129.507L804.162 99.9082L801.816 103.817L809.747 108.397L805.167 116.327L809.188 118.561L813.767 110.631L825.607 117.556L816.448 133.304L820.357 135.65L829.516 119.789Z" stroke="#F4E6BE" stroke-width="0.5002" stroke-miterlimit="3.8636"/>
<path d="M837 97.7861L825.16 90.9729L829.628 83.0428L825.719 80.6973L821.139 88.6274L813.321 84.048L810.975 88.0689L862.354 117.667L864.588 113.758L856.657 109.179L861.237 101.249L857.328 99.0148L852.748 106.945L840.909 100.02L850.068 84.2714L846.047 81.9259L837 97.7861Z" stroke="#F4E6BE" stroke-width="0.5002" stroke-miterlimit="3.8636"/>
<path d="M812.874 57.4652L824.714 64.3901L820.134 72.2085L824.044 74.554L828.623 66.6239L836.553 71.2033L838.787 67.1824L787.409 37.584L785.175 41.4932L793.105 46.0726L788.526 54.0027L792.435 56.2366L797.014 48.4181L808.854 55.2313L799.695 70.9799L803.716 73.3254L812.874 57.4652Z" stroke="#F4E6BE" stroke-width="0.5002" stroke-miterlimit="3.8636"/>
<path d="M820.245 35.4625L808.406 28.6493L812.985 20.7192L809.076 18.4854L804.497 26.3038L796.567 21.8361L794.333 25.7453L845.599 55.3437L847.945 51.4345L840.015 46.8551L844.594 38.925L840.685 36.6912L836.106 44.6213L824.266 37.8081L833.313 21.9478L829.404 19.714L820.245 35.4625Z" stroke="#F4E6BE" stroke-width="0.5002" stroke-miterlimit="3.8636"/>
<path d="M1035.36 28.055L1039.32 30.3447L1050.71 10.6128L1046.75 8.32308L1035.36 28.055Z" stroke="#F4E6BE" stroke-width="0.5002" stroke-miterlimit="3.8636"/>
<path d="M1110.98 61.1514L1104.17 72.9908L1096.24 68.4114L1094 72.4323L1101.93 77.0117L1097.35 84.8301L1101.26 87.1756L1130.97 35.7973L1126.95 33.5635L1122.37 41.3819L1114.55 36.9142L1112.21 40.8235L1120.14 45.4028L1113.33 57.2422L1097.47 48.0834L1095.23 52.1043L1110.98 61.1514Z" stroke="#F4E6BE" stroke-width="0.5002" stroke-miterlimit="3.8636"/>
<path d="M1091.18 49.8183L1093.47 45.8525L1073.73 34.46L1071.44 38.4257L1091.18 49.8183Z" stroke="#F4E6BE" stroke-width="0.5002" stroke-miterlimit="3.8636"/>
<path d="M1054.02 23.0643L1060.83 11.2249L1068.76 15.6926L1071.11 11.7834L1063.18 7.20401L1067.76 -0.726121L1063.73 -2.95996L1034.14 48.4184L1038.04 50.6522L1042.62 42.7221L1050.55 47.3014L1052.79 43.3922L1044.97 38.8128L1051.78 26.9735L1067.53 36.1322L1069.88 32.1113L1054.02 23.0643Z" stroke="#F4E6BE" stroke-width="0.5002" stroke-miterlimit="3.8636"/>
<path d="M1032.01 15.5805L1025.2 27.4198L1017.27 22.8405L1015.04 26.8614L1022.86 31.3291L1018.39 39.2592L1022.3 41.493L1051.9 -9.77361L1047.99 -12.1191L1043.41 -4.18901L1035.48 -8.76838L1033.24 -4.74747L1041.17 -0.279789L1034.25 11.6713L1018.5 2.51251L1016.27 6.42173L1032.01 15.5805Z" stroke="#F4E6BE" stroke-width="0.5002" stroke-miterlimit="3.8636"/>
<path d="M1086.3 30.9948L1074.46 24.1816L1079.04 16.2514L1075.02 14.0176L1070.55 21.836L1062.62 17.3683L1060.27 21.2776L1111.65 50.8759L1114 46.9667L1106.07 42.3874L1110.65 34.4572L1106.62 32.2234L1102.04 40.1535L1090.21 33.2286L1099.36 17.48L1095.45 15.2462L1086.3 30.9948Z" stroke="#F4E6BE" stroke-width="0.5002" stroke-miterlimit="3.8636"/>
<path d="M1078.81 53.1097L1090.65 59.9229L1086.07 67.853L1090.09 70.0869L1094.56 62.2684L1102.49 66.8478L1104.73 62.8269L1053.46 33.2285L1051.11 37.1377L1059.04 41.7171L1054.46 49.6472L1058.48 51.8811L1062.95 43.9509L1074.9 50.8759L1065.74 66.6244L1069.65 68.8583L1078.81 53.1097Z" stroke="#F4E6BE" stroke-width="0.5002" stroke-miterlimit="3.8636"/>
<path d="M1116.23 6.19868L1123.15 -5.64068L1130.97 -1.0613L1133.32 -4.97053L1125.39 -9.5499L1129.97 -17.48L1125.95 -19.7139L1096.35 31.5528L1100.26 33.8983L1104.84 25.9682L1112.77 30.5475L1115 26.5266L1107.18 22.0589L1114 10.2196L1129.74 19.2666L1132.09 15.3574L1116.23 6.19868Z" stroke="#F4E6BE" stroke-width="0.5002" stroke-miterlimit="3.8636"/>
<path d="M1094.23 -1.28511L1087.41 10.6659L1079.48 6.08656L1077.25 9.99578L1085.07 14.5751L1080.6 22.5053L1084.51 24.7391L1114.11 -26.6392L1110.2 -28.873L1105.62 -20.9429L1097.69 -25.5223L1095.46 -21.6131L1103.39 -17.0337L1096.46 -5.19434L1080.71 -14.3531L1078.48 -10.3322L1094.23 -1.28511Z" stroke="#F4E6BE" stroke-width="0.5002" stroke-miterlimit="3.8636"/>
<path d="M1052 90.288L1055.97 92.5781L1067.36 72.8462L1063.39 70.556L1052 90.288Z" stroke="#F4E6BE" stroke-width="0.5002" stroke-miterlimit="3.8636"/>
<path d="M999.846 7.53876L1011.69 14.352L1007.11 22.2821L1011.02 24.516L1015.59 16.5858L1023.53 21.1652L1025.76 17.256L974.492 -12.4541L972.147 -8.43319L980.077 -3.85382L975.497 3.96462L979.407 6.31015L983.986 -1.61998L995.825 5.19323L986.778 21.0535L990.688 23.2873L999.846 7.53876Z" stroke="#F4E6BE" stroke-width="0.5002" stroke-miterlimit="3.8636"/>
<path d="M973.111 44.6976L977.077 46.9873L988.469 27.2553L984.504 24.9657L973.111 44.6976Z" stroke="#F4E6BE" stroke-width="0.5002" stroke-miterlimit="3.8636"/>
<path d="M1107.98 112.121L1110.27 108.155L1090.54 96.7627L1088.25 100.728L1107.98 112.121Z" stroke="#F4E6BE" stroke-width="0.5002" stroke-miterlimit="3.8636"/>
<path d="M949.904 20.9169L952.194 16.9512L932.462 5.55858L930.172 9.52432L949.904 20.9169Z" stroke="#F4E6BE" stroke-width="0.5002" stroke-miterlimit="3.8636"/>
<path d="M1028.94 66.5155L1031.23 62.5498L1011.49 51.1572L1009.21 55.123L1028.94 66.5155Z" stroke="#F4E6BE" stroke-width="0.5002" stroke-miterlimit="3.8636"/>
<path d="M1087.41 147.601L1094.23 135.762L1102.16 140.341L1104.5 136.432L1096.57 131.852L1101.15 123.922L1097.13 121.688L1067.53 172.955L1071.44 175.301L1076.02 167.371L1083.95 171.95L1086.18 167.929L1078.25 163.461L1085.18 151.51L1100.93 160.669L1103.27 156.76L1087.41 147.601Z" stroke="#F4E6BE" stroke-width="0.5002" stroke-miterlimit="3.8636"/>
<path d="M1070.88 85.3885L1077.7 73.5491L1085.63 78.1285L1087.86 74.1076L1080.04 69.6399L1084.51 61.7098L1080.6 59.3643L1051 110.743L1054.91 113.088L1059.49 105.158L1067.42 109.737L1069.65 105.716L1061.72 101.249L1068.65 89.2977L1084.4 98.4565L1086.63 94.5472L1070.88 85.3885Z" stroke="#F4E6BE" stroke-width="0.5002" stroke-miterlimit="3.8636"/>
<path d="M1095.45 115.434L1107.29 122.247L1102.83 130.177L1106.74 132.411L1111.32 124.481L1119.25 129.06L1121.48 125.151L1070.1 95.5527L1067.87 99.462L1075.8 104.041L1071.22 111.86L1075.13 114.205L1079.71 106.275L1091.55 113.088L1082.39 128.949L1086.41 131.182L1095.45 115.434Z" stroke="#F4E6BE" stroke-width="0.5002" stroke-miterlimit="3.8636"/>
<path d="M1102.94 93.4297L1091.1 86.5048L1095.68 78.6864L1091.66 76.3408L1087.19 84.271L1079.26 79.6916L1076.91 83.6008L1128.29 113.311L1130.64 109.29L1122.71 104.822L1127.29 96.8922L1123.27 94.6583L1118.8 102.477L1106.85 95.6635L1116.01 79.915L1112.1 77.5694L1102.94 93.4297Z" stroke="#F4E6BE" stroke-width="0.5002" stroke-miterlimit="3.8636"/>
<path d="M1065.41 140.117L1058.6 152.068L1050.67 147.489L1048.43 151.398L1056.25 155.977L1051.67 163.908L1055.69 166.141L1085.29 114.763L1081.38 112.529L1076.8 120.459L1068.87 115.88L1066.64 119.789L1074.57 124.369L1067.64 136.208L1051.89 127.049L1049.55 131.07L1065.41 140.117Z" stroke="#F4E6BE" stroke-width="0.5002" stroke-miterlimit="3.8636"/>
<path d="M865.162 140.447L869.128 142.736L880.521 123.004L876.555 120.715L865.162 140.447Z" stroke="#F4E6BE" stroke-width="0.5002" stroke-miterlimit="3.8636"/>
<path d="M883.799 135.427L890.724 123.587L898.542 128.055L900.888 124.146L892.958 119.566L897.537 111.748L893.628 109.402L863.918 160.781L867.939 163.015L872.406 155.196L880.336 159.664L882.57 155.755L874.752 151.175L881.565 139.336L897.314 148.495L899.659 144.474L883.799 135.427Z" stroke="#F4E6BE" stroke-width="0.5002" stroke-miterlimit="3.8636"/>
<path d="M861.795 127.943L854.982 139.782L847.052 135.203L844.818 139.224L852.748 143.691L848.169 151.621L852.078 153.967L881.676 102.589L877.767 100.243L873.188 108.173L865.369 103.594L863.024 107.615L870.954 112.194L864.141 124.034L848.28 114.875L846.046 118.784L861.795 127.943Z" stroke="#F4E6BE" stroke-width="0.5002" stroke-miterlimit="3.8636"/>
<path d="M927.465 123.696L931.43 125.985L942.823 106.253L938.857 103.964L927.465 123.696Z" stroke="#F4E6BE" stroke-width="0.5002" stroke-miterlimit="3.8636"/>
<path d="M989.71 107.04L993.676 109.33L1005.07 89.5981L1001.1 87.3084L989.71 107.04Z" stroke="#F4E6BE" stroke-width="0.5002" stroke-miterlimit="3.8636"/>
<path d="M899.324 81.1442L887.485 74.331L892.064 66.4008L888.155 64.167L883.576 71.9854L875.645 67.5178L873.412 71.427L924.678 101.025L927.024 97.1161L919.094 92.5368L923.673 84.7183L919.764 82.3728L915.184 90.3029L903.345 83.4897L912.392 67.6294L908.483 65.3956L899.324 81.1442Z" stroke="#F4E6BE" stroke-width="0.5002" stroke-miterlimit="3.8636"/>
<path d="M904.364 99.8534L906.654 95.8877L886.922 84.4951L884.632 88.4608L904.364 99.8534Z" stroke="#F4E6BE" stroke-width="0.5002" stroke-miterlimit="3.8636"/>
<path d="M1045.64 128.761L1047.93 124.795L1028.2 113.402L1025.91 117.368L1045.64 128.761Z" stroke="#F4E6BE" stroke-width="0.5002" stroke-miterlimit="3.8636"/>
<path d="M966.601 83.1562L968.891 79.1904L949.159 67.7978L946.869 71.7636L966.601 83.1562Z" stroke="#F4E6BE" stroke-width="0.5002" stroke-miterlimit="3.8636"/>
<path d="M1048.66 77.9047L1041.84 89.744L1034.02 85.1647L1031.68 89.0739L1039.61 93.6533L1035.03 101.583L1038.94 103.817L1068.65 52.5506L1064.63 50.2051L1060.16 58.1352L1052.23 53.5558L1049.88 57.4651L1057.81 62.0444L1051 73.8838L1035.14 64.8367L1032.91 68.746L1048.66 77.9047Z" stroke="#F4E6BE" stroke-width="0.5002" stroke-miterlimit="3.8636"/>
<path d="M1008.45 102.031L1015.26 90.1917L1023.19 94.7711L1025.42 90.7502L1017.61 86.1708L1022.07 78.3524L1018.16 76.0068L988.566 127.385L992.475 129.619L997.054 121.801L1004.98 126.268L1007.22 122.359L999.288 117.78L1006.21 105.94L1021.96 115.099L1024.2 111.078L1008.45 102.031Z" stroke="#F4E6BE" stroke-width="0.5002" stroke-miterlimit="3.8636"/>
<path d="M991.693 39.7059L998.618 27.8665L1006.44 32.4459L1008.78 28.425L1000.85 23.9573L1005.43 16.0272L1001.52 13.6816L971.812 65.06L975.833 67.4055L980.3 59.4754L988.231 64.0547L990.576 60.0338L982.646 55.5661L989.459 43.6151L1005.32 52.7738L1007.55 48.8646L991.693 39.7059Z" stroke="#F4E6BE" stroke-width="0.5002" stroke-miterlimit="3.8636"/>
<path d="M946.123 118.672L952.936 106.833L960.866 111.412L963.212 107.503L955.282 102.924L959.861 94.9936L955.84 92.7598L926.242 144.026L930.151 146.372L934.73 138.442L942.66 143.021L944.894 139.112L937.076 134.533L943.889 122.693L959.638 131.74L961.983 127.831L946.123 118.672Z" stroke="#F4E6BE" stroke-width="0.5002" stroke-miterlimit="3.8636"/>
<path d="M929.481 56.4598L936.294 44.5087L944.224 49.0881L946.458 45.1789L938.528 40.5995L943.107 32.6694L939.198 30.4355L909.488 81.8139L913.509 84.0477L918.088 76.1176L925.907 80.697L928.252 76.7877L920.322 72.2084L927.135 60.369L942.995 69.5278L945.229 65.5068L929.481 56.4598Z" stroke="#F4E6BE" stroke-width="0.5002" stroke-miterlimit="3.8636"/>
<path d="M954.164 86.5052L966.004 93.3184L961.536 101.249L965.445 103.482L970.025 95.6639L977.955 100.132L980.189 96.2224L928.81 66.624L926.576 70.5332L934.507 75.1126L929.927 83.0428L933.836 85.2766L938.416 77.3465L950.255 84.2714L941.096 100.02L945.117 102.254L954.164 86.5052Z" stroke="#F4E6BE" stroke-width="0.5002" stroke-miterlimit="3.8636"/>
<path d="M937.522 24.181L949.362 30.9942L944.782 38.9243L948.803 41.2699L953.271 33.3397L961.201 37.9191L963.435 33.8982L912.168 4.2998L909.823 8.20903L917.753 12.7884L913.174 20.7185L917.194 22.9524L921.662 15.1339L933.613 21.9471L924.454 37.6957L928.364 40.0412L937.522 24.181Z" stroke="#F4E6BE" stroke-width="0.5002" stroke-miterlimit="3.8636"/>
<path d="M1016.49 69.7513L1028.33 76.6762L1023.75 84.4946L1027.77 86.8402L1032.35 78.91L1040.17 83.4894L1042.51 79.5802L991.134 49.8701L988.9 53.891L996.719 58.3587L992.139 66.2888L996.16 68.6344L1000.74 60.7042L1012.58 67.5175L1003.42 83.3777L1007.33 85.6116L1016.49 69.7513Z" stroke="#F4E6BE" stroke-width="0.5002" stroke-miterlimit="3.8636"/>
<path d="M1033.24 132.076L1045.08 138.889L1040.5 146.819L1044.41 149.164L1048.99 141.234L1056.92 145.814L1059.16 141.793L1007.78 112.194L1005.54 116.104L1013.47 120.683L1008.89 128.613L1012.8 130.847L1017.38 123.028L1029.22 129.842L1020.17 145.59L1024.08 147.936L1033.24 132.076Z" stroke="#F4E6BE" stroke-width="0.5002" stroke-miterlimit="3.8636"/>
<path d="M891.952 103.148L903.792 110.073L899.212 117.891L903.122 120.237L907.701 112.307L915.631 116.886L917.865 112.977L866.487 83.2666L864.253 87.1758L872.183 91.7552L867.603 99.6853L871.513 101.919L876.092 94.1007L887.931 100.914L878.884 116.663L882.794 119.008L891.952 103.148Z" stroke="#F4E6BE" stroke-width="0.5002" stroke-miterlimit="3.8636"/>
<path d="M986.443 94.5469L979.518 106.386L971.7 101.807L969.354 105.828L977.284 110.407L972.705 118.226L976.726 120.571L1006.32 69.1928L1002.42 66.959L997.836 74.7774L989.906 70.1981L987.672 74.219L995.49 78.7983L988.677 90.6377L972.928 81.4789L970.583 85.3882L986.443 94.5469Z" stroke="#F4E6BE" stroke-width="0.5002" stroke-miterlimit="3.8636"/>
<path d="M924.119 111.301L917.306 123.141L909.375 118.561L907.142 122.47L914.96 127.05L910.381 134.98L914.402 137.214L944 85.8354L940.091 83.6016L935.511 91.5317L927.581 86.9523L925.347 90.8615L933.278 95.4409L926.353 107.28L910.604 98.2332L908.37 102.142L924.119 111.301Z" stroke="#F4E6BE" stroke-width="0.5002" stroke-miterlimit="3.8636"/>
<path d="M969.69 32.2227L962.877 44.062L954.947 39.5944L952.713 43.5036L960.643 48.083L956.064 56.0131L959.973 58.2469L989.683 6.86861L985.662 4.63477L981.083 12.5649L973.264 7.98553L970.919 11.8947L978.849 16.4741L972.036 28.3135L956.175 19.1547L953.942 23.1756L969.69 32.2227Z" stroke="#F4E6BE" stroke-width="0.5002" stroke-miterlimit="3.8636"/>
<path d="M1023.97 47.7487L1012.13 40.9355L1016.71 33.0053L1012.69 30.7715L1008.11 38.7016L1000.29 34.1222L997.948 38.0315L1049.33 67.7415L1051.56 63.7206L1043.74 59.1413L1048.21 51.3228L1044.3 48.9773L1039.72 56.9074L1027.88 50.0942L1037.04 34.2339L1033.13 32.0001L1023.97 47.7487Z" stroke="#F4E6BE" stroke-width="0.5002" stroke-miterlimit="3.8636"/>
<path d="M944.894 2.28968L933.054 -4.52353L937.634 -12.4537L933.613 -14.6875L929.033 -6.86906L921.215 -11.3367L918.869 -7.42752L970.248 22.1709L972.482 18.2616L964.663 13.6823L969.242 5.75214L965.222 3.51829L960.642 11.4484L948.803 4.63521L957.962 -11.225L954.052 -13.4589L944.894 2.28968Z" stroke="#F4E6BE" stroke-width="0.5002" stroke-miterlimit="3.8636"/>
<path d="M978.401 126.714L966.45 119.901L971.03 111.971L967.12 109.737L962.541 117.667L954.611 113.088L952.377 116.997L1003.76 146.707L1005.99 142.686L998.059 138.219L1002.64 130.289L998.729 127.943L994.15 135.873L982.31 129.06L991.469 113.2L987.448 110.966L978.401 126.714Z" stroke="#F4E6BE" stroke-width="0.5002" stroke-miterlimit="3.8636"/>
<path d="M1040.61 110.072L1028.78 103.259L1033.35 95.3286L1029.45 93.0947L1024.87 100.913L1016.94 96.4455L1014.7 100.355L1065.97 129.953L1068.31 126.044L1060.38 121.465L1064.96 113.534L1061.05 111.301L1056.47 119.231L1044.64 112.306L1053.68 96.5572L1049.77 94.3233L1040.61 110.072Z" stroke="#F4E6BE" stroke-width="0.5002" stroke-miterlimit="3.8636"/>
<path d="M961.648 64.502L949.809 57.5771L954.388 49.7586L950.367 47.4131L945.9 55.3432L937.969 50.7638L935.736 54.7848L987.002 84.3831L989.348 80.4739L981.418 75.8945L985.997 67.9644L981.976 65.7306L977.508 73.549L965.557 66.7358L974.716 50.9872L970.807 48.6417L961.648 64.502Z" stroke="#F4E6BE" stroke-width="0.5002" stroke-miterlimit="3.8636"/>
</g>
<defs>
<clipPath id="clip0_943_2917">
<rect width="1102" height="126" rx="3" fill="white"/>
</clipPath>
</defs>
</svg>
